<svg width="849" height="303" xmlns="http://www.w3.org/2000/svg" xmlns:xlink="http://www.w3.org/1999/xlink" overflow="hidden"><defs><clipPath id="clip0"><rect x="602" y="189" width="849" height="303"/></clipPath><clipPath id="clip1"><rect x="808" y="229" width="642" height="262"/></clipPath><clipPath id="clip2"><rect x="808" y="229" width="642" height="262"/></clipPath><clipPath id="clip3"><rect x="808" y="170" width="642" height="321"/></clipPath></defs><g clip-path="url(#clip0)" transform="translate(-602 -189)"><g clip-path="url(#clip1)"><g clip-path="url(#clip2)"><g clip-path="url(#clip3)"><path d="M0 320.309 640.618 320.309 640.618 0 0 0Z" fill="#FFFFFF" transform="matrix(1.00216 0 0 1 808 170.691)"/><path d="M79.2935 296.286 267.208 296.286 267.208 61.3926 79.2935 61.3926Z" fill="#FFFFFF" transform="matrix(1.00216 0 0 1 808 170.691)"/><g><path d="M79.2935 61.3926 126.272 61.3926 126.272 108.371 79.2935 108.371 79.2935 61.3926" fill="#F9EBE3" transform="matrix(1.00216 0 0 1 808 170.691)"/></g><g><path d="M126.272 61.3926 173.251 61.3926 173.251 108.371 126.272 108.371 126.272 61.3926" fill="#F7F6F6" transform="matrix(1.00216 0 0 1 808 170.691)"/></g><g><path d="M173.251 61.3926 220.229 61.3926 220.229 108.371 173.251 108.371 173.251 61.3926" fill="#F7F6F6" transform="matrix(1.00216 0 0 1 808 170.691)"/></g><g><path d="M220.229 61.3926 267.208 61.3926 267.208 108.371 220.229 108.371 220.229 61.3926" fill="#FAE7DC" transform="matrix(1.00216 0 0 1 808 170.691)"/></g><g><path d="M79.2935 108.371 126.272 108.371 126.272 155.35 79.2935 155.35 79.2935 108.371" fill="#F9C6AC" transform="matrix(1.00216 0 0 1 808 170.691)"/></g><g><path d="M126.272 108.371 173.251 108.371 173.251 155.35 126.272 155.35 126.272 108.371" fill="#E7F0F4" transform="matrix(1.00216 0 0 1 808 170.691)"/></g><g><path d="M173.251 108.371 220.229 108.371 220.229 155.35 173.251 155.35 173.251 108.371" fill="#6BACD1" transform="matrix(1.00216 0 0 1 808 170.691)"/></g><g><path d="M220.229 108.371 267.208 108.371 267.208 155.35 220.229 155.35 220.229 108.371" fill="#A2CDE3" transform="matrix(1.00216 0 0 1 808 170.691)"/></g><g><path d="M79.2935 155.35 126.272 155.35 126.272 202.329 79.2935 202.329 79.2935 155.35" fill="#DD7059" transform="matrix(1.00216 0 0 1 808 170.691)"/></g><g><path d="M126.272 155.35 173.251 155.35 173.251 202.329 126.272 202.329 126.272 155.35" fill="#FBE5D8" transform="matrix(1.00216 0 0 1 808 170.691)"/></g><g><path d="M173.251 155.35 220.229 155.35 220.229 202.329 173.251 202.329 173.251 155.35" fill="#4393C3" transform="matrix(1.00216 0 0 1 808 170.691)"/></g><g><path d="M220.229 155.35 267.208 155.35 267.208 202.329 220.229 202.329 220.229 155.35" fill="#CAE1EE" transform="matrix(1.00216 0 0 1 808 170.691)"/></g><g><path d="M79.2935 202.329 126.272 202.329 126.272 249.307 79.2935 249.307 79.2935 202.329" fill="#FCD7C2" transform="matrix(1.00216 0 0 1 808 170.691)"/></g><g><path d="M126.272 202.329 173.251 202.329 173.251 249.307 126.272 249.307 126.272 202.329" fill="#FAE9DF" transform="matrix(1.00216 0 0 1 808 170.691)"/></g><g><path d="M173.251 202.329 220.229 202.329 220.229 249.307 173.251 249.307 173.251 202.329" fill="#F5AC8B" transform="matrix(1.00216 0 0 1 808 170.691)"/></g><g><path d="M220.229 202.329 267.208 202.329 267.208 249.307 220.229 249.307 220.229 202.329" fill="#569FC9" transform="matrix(1.00216 0 0 1 808 170.691)"/></g><g><path d="M79.2935 249.307 126.272 249.307 126.272 296.286 79.2935 296.286 79.2935 249.307" fill="#F7B799" transform="matrix(1.00216 0 0 1 808 170.691)"/></g><g><path d="M126.272 249.307 173.251 249.307 173.251 296.286 126.272 296.286 126.272 249.307" fill="#B1D5E7" transform="matrix(1.00216 0 0 1 808 170.691)"/></g><g><path d="M173.251 249.307 220.229 249.307 220.229 296.286 173.251 296.286 173.251 249.307" fill="#F6AF8E" transform="matrix(1.00216 0 0 1 808 170.691)"/></g><g><path d="M220.229 249.307 267.208 249.307 267.208 296.286 220.229 296.286 220.229 249.307" fill="#C5DFEC" transform="matrix(1.00216 0 0 1 808 170.691)"/></g><path d="M4.24159 8.86272C3.56455 8.86272 3.05503 8.52906 2.71303 7.86175 2.37243 7.19583 2.20212 6.19348 2.20212 4.85468 2.20212 3.52145 2.37243 2.52118 2.71303 1.85387 3.05503 1.18656 3.56455 0.852906 4.24159 0.852906 4.9242 0.852906 5.4358 1.18656 5.77641 1.85387 6.1184 2.52118 6.2894 3.52145 6.2894 4.85468 6.2894 6.19348 6.1184 7.19583 5.77641 7.86175 5.4358 8.52906 4.9242 8.86272 4.24159 8.86272ZM4.24159 9.90539C5.33292 9.90539 6.16637 9.47373 6.74192 8.61039 7.31748 7.74845 7.60526 6.49655 7.60526 4.85468 7.60526 3.21699 7.31748 1.96648 6.74192 1.10315 6.16637 0.241205 5.33292-0.189766 4.24159-0.189766 3.15165-0.189766 2.3189 0.241205 1.74335 1.10315 1.16779 1.96648 0.880016 3.21699 0.880016 4.85468 0.880016 6.49655 1.16779 7.74845 1.74335 8.61039 2.3189 9.47373 3.15165 9.90539 4.24159 9.90539Z" fill="#262626" transform="matrix(1.00216 0 0 -1 896.114 259.256)"/><path d="M1.42638 1.65576 2.8027 1.65576 2.8027 0 1.42638 0 1.42638 1.65576Z" fill="#262626" transform="matrix(1.00216 0 0 -1 904.624 259.256)"/><path d="M1.65576 1.10732 3.80576 1.10732 3.80576 8.53115 1.466 8.06195 1.466 9.26102 3.79324 9.73022 5.1091 9.73022 5.1091 1.10732 7.25909 1.10732 7.25909 0 1.65576 0 1.65576 1.10732Z" fill="#262626" transform="matrix(1.00216 0 0 -1 908.875 259.256)"/><path d="M4.40634 5.38853C3.81549 5.38853 3.34698 5.18625 3.00081 4.7817 2.65603 4.37853 2.48365 3.82522 2.48365 3.12176 2.48365 2.42248 2.65603 1.86916 3.00081 1.46183 3.34698 1.05588 3.81549 0.852906 4.40634 0.852906 4.99718 0.852906 5.465 1.05588 5.80977 1.46183 6.15455 1.86916 6.32694 2.42248 6.32694 3.12176 6.32694 3.82522 6.15455 4.37853 5.80977 4.7817 5.465 5.18625 4.99718 5.38853 4.40634 5.38853ZM7.01927 9.51543 7.01927 8.31636C6.6884 8.47206 6.35474 8.59093 6.01831 8.67295 5.68187 8.75637 5.34822 8.79807 5.01734 8.79807 4.14845 8.79807 3.48461 8.50473 3.02584 7.91806 2.56845 7.33138 2.30709 6.44511 2.24175 5.25924 2.49755 5.63738 2.81869 5.92725 3.20518 6.12883 3.59305 6.33041 4.01916 6.43121 4.48349 6.43121 5.46082 6.43121 6.2331 6.13439 6.80031 5.54076 7.36753 4.94852 7.65113 4.14219 7.65113 3.12176 7.65113 2.12219 7.35571 1.32002 6.76486 0.715273 6.17401 0.111914 5.38784-0.189766 4.40634-0.189766 3.28025-0.189766 2.4197 0.241205 1.82468 1.10315 1.22966 1.96648 0.932149 3.21699 0.932149 4.85468 0.932149 6.39228 1.29708 7.61846 2.02696 8.53323 2.75683 9.44801 3.73624 9.90539 4.96521 9.90539 5.29608 9.90539 5.62974 9.87272 5.96617 9.80738 6.30261 9.74204 6.65364 9.64472 7.01927 9.51543Z" fill="#262626" transform="matrix(1.00216 0 0 -1 917.385 259.256)"/><path d="M4.24159 8.86272C3.56455 8.86272 3.05503 8.52906 2.71303 7.86175 2.37243 7.19583 2.20212 6.19348 2.20212 4.85468 2.20212 3.52145 2.37243 2.52118 2.71303 1.85387 3.05503 1.18656 3.56455 0.852906 4.24159 0.852906 4.9242 0.852906 5.4358 1.18656 5.77641 1.85387 6.1184 2.52118 6.2894 3.52145 6.2894 4.85468 6.2894 6.19348 6.1184 7.19583 5.77641 7.86175 5.4358 8.52906 4.9242 8.86272 4.24159 8.86272ZM4.24159 9.90539C5.33292 9.90539 6.16637 9.47373 6.74192 8.61039 7.31748 7.74845 7.60526 6.49655 7.60526 4.85468 7.60526 3.21699 7.31748 1.96648 6.74192 1.10315 6.16637 0.241205 5.33292-0.189766 4.24159-0.189766 3.15165-0.189766 2.3189 0.241205 1.74335 1.10315 1.16779 1.96648 0.880016 3.21699 0.880016 4.85468 0.880016 6.49655 1.16779 7.74845 1.74335 8.61039 2.3189 9.47373 3.15165 9.90539 4.24159 9.90539Z" fill="#262626" transform="matrix(1.00216 0 0 -1 953.83 259.256)"/><path d="M4.24159 8.86272C3.56455 8.86272 3.05503 8.52906 2.71303 7.86175 2.37243 7.19583 2.20212 6.19348 2.20212 4.85468 2.20212 3.52145 2.37243 2.52118 2.71303 1.85387 3.05503 1.18656 3.56455 0.852906 4.24159 0.852906 4.9242 0.852906 5.4358 1.18656 5.77641 1.85387 6.1184 2.52118 6.2894 3.52145 6.2894 4.85468 6.2894 6.19348 6.1184 7.19583 5.77641 7.86175 5.4358 8.52906 4.9242 8.86272 4.24159 8.86272ZM4.24159 9.90539C5.33292 9.90539 6.16637 9.47373 6.74192 8.61039 7.31748 7.74845 7.60526 6.49655 7.60526 4.85468 7.60526 3.21699 7.31748 1.96648 6.74192 1.10315 6.16637 0.241205 5.33292-0.189766 4.24159-0.189766 3.15165-0.189766 2.3189 0.241205 1.74335 1.10315 1.16779 1.96648 0.880016 3.21699 0.880016 4.85468 0.880016 6.49655 1.16779 7.74845 1.74335 8.61039 2.3189 9.47373 3.15165 9.90539 4.24159 9.90539Z" fill="#262626" transform="matrix(1.00216 0 0 -1 1000.91 259.256)"/><path d="M4.24159 8.86272C3.56455 8.86272 3.05503 8.52906 2.71303 7.86175 2.37243 7.19583 2.20212 6.19348 2.20212 4.85468 2.20212 3.52145 2.37243 2.52118 2.71303 1.85387 3.05503 1.18656 3.56455 0.852906 4.24159 0.852906 4.9242 0.852906 5.4358 1.18656 5.77641 1.85387 6.1184 2.52118 6.2894 3.52145 6.2894 4.85468 6.2894 6.19348 6.1184 7.19583 5.77641 7.86175 5.4358 8.52906 4.9242 8.86272 4.24159 8.86272ZM4.24159 9.90539C5.33292 9.90539 6.16637 9.47373 6.74192 8.61039 7.31748 7.74845 7.60526 6.49655 7.60526 4.85468 7.60526 3.21699 7.31748 1.96648 6.74192 1.10315 6.16637 0.241205 5.33292-0.189766 4.24159-0.189766 3.15165-0.189766 2.3189 0.241205 1.74335 1.10315 1.16779 1.96648 0.880016 3.21699 0.880016 4.85468 0.880016 6.49655 1.16779 7.74845 1.74335 8.61039 2.3189 9.47373 3.15165 9.90539 4.24159 9.90539Z" fill="#262626" transform="matrix(1.00216 0 0 -1 1037.35 259.256)"/><path d="M1.42638 1.65576 2.8027 1.65576 2.8027 0 1.42638 0 1.42638 1.65576Z" fill="#262626" transform="matrix(1.00216 0 0 -1 1045.86 259.256)"/><path d="M2.5608 1.10732 7.15482 1.10732 7.15482 0 0.978027 0 0.978027 1.10732C1.47712 1.62448 2.15764 2.31821 3.01958 3.18849 3.88291 4.06017 4.4251 4.62252 4.64615 4.87554 5.06739 5.34822 5.36142 5.7486 5.52825 6.0767 5.69647 6.40479 5.78058 6.72732 5.78058 7.0443 5.78058 7.56146 5.59915 7.9827 5.2363 8.30802 4.87345 8.63472 4.40077 8.79807 3.81827 8.79807 3.40537 8.79807 2.96953 8.72648 2.51076 8.58328 2.05337 8.44009 1.56401 8.22252 1.04267 7.93057L1.04267 9.26102C1.57235 9.47373 2.06727 9.6343 2.52744 9.74273 2.989 9.85117 3.41093 9.90539 3.79324 9.90539 4.80116 9.90539 5.60471 9.65306 6.2039 9.14841 6.80309 8.64515 7.10269 7.97228 7.10269 7.1298 7.10269 6.72941 7.02761 6.34988 6.87747 5.9912 6.72872 5.63391 6.45623 5.21197 6.06001 4.72539 5.95158 4.59888 5.6061 4.23464 5.0236 3.63267 4.44248 3.0307 3.62155 2.18892 2.5608 1.10732Z" fill="#262626" transform="matrix(1.00216 0 0 -1 1050.12 259.256)"/><path d="M2.5608 1.10732 7.15482 1.10732 7.15482 0 0.978027 0 0.978027 1.10732C1.47712 1.62448 2.15764 2.31821 3.01958 3.18849 3.88291 4.06017 4.4251 4.62252 4.64615 4.87554 5.06739 5.34822 5.36142 5.7486 5.52825 6.0767 5.69647 6.40479 5.78058 6.72732 5.78058 7.0443 5.78058 7.56146 5.59915 7.9827 5.2363 8.30802 4.87345 8.63472 4.40077 8.79807 3.81827 8.79807 3.40537 8.79807 2.96953 8.72648 2.51076 8.58328 2.05337 8.44009 1.56401 8.22252 1.04267 7.93057L1.04267 9.26102C1.57235 9.47373 2.06727 9.6343 2.52744 9.74273 2.989 9.85117 3.41093 9.90539 3.79324 9.90539 4.80116 9.90539 5.60471 9.65306 6.2039 9.14841 6.80309 8.64515 7.10269 7.97228 7.10269 7.1298 7.10269 6.72941 7.02761 6.34988 6.87747 5.9912 6.72872 5.63391 6.45623 5.21197 6.06001 4.72539 5.95158 4.59888 5.6061 4.23464 5.0236 3.63267 4.44248 3.0307 3.62155 2.18892 2.5608 1.10732Z" fill="#262626" transform="matrix(1.00216 0 0 -1 1058.63 259.256)"/><path d="M4.24159 8.86272C3.56455 8.86272 3.05503 8.52906 2.71303 7.86175 2.37243 7.19583 2.20212 6.19348 2.20212 4.85468 2.20212 3.52145 2.37243 2.52118 2.71303 1.85387 3.05503 1.18656 3.56455 0.852906 4.24159 0.852906 4.9242 0.852906 5.4358 1.18656 5.77641 1.85387 6.1184 2.52118 6.2894 3.52145 6.2894 4.85468 6.2894 6.19348 6.1184 7.19583 5.77641 7.86175 5.4358 8.52906 4.9242 8.86272 4.24159 8.86272ZM4.24159 9.90539C5.33292 9.90539 6.16637 9.47373 6.74192 8.61039 7.31748 7.74845 7.60526 6.49655 7.60526 4.85468 7.60526 3.21699 7.31748 1.96648 6.74192 1.10315 6.16637 0.241205 5.33292-0.189766 4.24159-0.189766 3.15165-0.189766 2.3189 0.241205 1.74335 1.10315 1.16779 1.96648 0.880016 3.21699 0.880016 4.85468 0.880016 6.49655 1.16779 7.74845 1.74335 8.61039 2.3189 9.47373 3.15165 9.90539 4.24159 9.90539Z" fill="#262626" transform="matrix(1.00216 0 0 -1 896.114 306.234)"/><path d="M1.42638 1.65576 2.8027 1.65576 2.8027 0 1.42638 0 1.42638 1.65576Z" fill="#262626" transform="matrix(1.00216 0 0 -1 904.624 306.234)"/><path d="M1.44097 9.73022 6.60846 9.73022 6.60846 8.62082 2.6463 8.62082 2.6463 6.23727C2.83677 6.30261 3.02723 6.35127 3.21769 6.38324 3.40954 6.41522 3.60139 6.43121 3.79324 6.43121 4.87901 6.43121 5.73887 6.1337 6.37282 5.53868 7.00815 4.94366 7.32582 4.13802 7.32582 3.12176 7.32582 2.07492 6.99981 1.26094 6.34779 0.679823 5.69577 0.100097 4.77683-0.189766 3.59097-0.189766 3.18224-0.189766 2.76586-0.155011 2.34184-0.0854992 1.91921-0.0159876 1.48199 0.0882796 1.03016 0.227303L1.03016 1.5515C1.42082 1.33879 1.82468 1.18031 2.24175 1.07604 2.65882 0.971771 3.09952 0.919637 3.56386 0.919637 4.31597 0.919637 4.91099 1.11705 5.34891 1.51188 5.78822 1.9067 6.00788 2.44333 6.00788 3.12176 6.00788 3.7988 5.78822 4.33474 5.34891 4.72956 4.91099 5.12578 4.31597 5.32389 3.56386 5.32389 3.21213 5.32389 2.86109 5.28496 2.51076 5.20711 2.16181 5.12926 1.80521 5.00761 1.44097 4.84217L1.44097 9.73022Z" fill="#262626" transform="matrix(1.00216 0 0 -1 908.875 306.234)"/><path d="M4.40634 5.38853C3.81549 5.38853 3.34698 5.18625 3.00081 4.7817 2.65603 4.37853 2.48365 3.82522 2.48365 3.12176 2.48365 2.42248 2.65603 1.86916 3.00081 1.46183 3.34698 1.05588 3.81549 0.852906 4.40634 0.852906 4.99718 0.852906 5.465 1.05588 5.80977 1.46183 6.15455 1.86916 6.32694 2.42248 6.32694 3.12176 6.32694 3.82522 6.15455 4.37853 5.80977 4.7817 5.465 5.18625 4.99718 5.38853 4.40634 5.38853ZM7.01927 9.51543 7.01927 8.31636C6.6884 8.47206 6.35474 8.59093 6.01831 8.67295 5.68187 8.75637 5.34822 8.79807 5.01734 8.79807 4.14845 8.79807 3.48461 8.50473 3.02584 7.91806 2.56845 7.33138 2.30709 6.44511 2.24175 5.25924 2.49755 5.63738 2.81869 5.92725 3.20518 6.12883 3.59305 6.33041 4.01916 6.43121 4.48349 6.43121 5.46082 6.43121 6.2331 6.13439 6.80031 5.54076 7.36753 4.94852 7.65113 4.14219 7.65113 3.12176 7.65113 2.12219 7.35571 1.32002 6.76486 0.715273 6.17401 0.111914 5.38784-0.189766 4.40634-0.189766 3.28025-0.189766 2.4197 0.241205 1.82468 1.10315 1.22966 1.96648 0.932149 3.21699 0.932149 4.85468 0.932149 6.39228 1.29708 7.61846 2.02696 8.53323 2.75683 9.44801 3.73624 9.90539 4.96521 9.90539 5.29608 9.90539 5.62974 9.87272 5.96617 9.80738 6.30261 9.74204 6.65364 9.64472 7.01927 9.51543Z" fill="#262626" transform="matrix(1.00216 0 0 -1 917.385 306.234)"/><path d="M0.652713 4.18946 4.16443 4.18946 4.16443 3.12176 0.652713 3.12176 0.652713 4.18946Z" fill="#262626" transform="matrix(1.00216 0 0 -1 940.782 306.234)"/><path d="M4.24159 8.86272C3.56455 8.86272 3.05503 8.52906 2.71303 7.86175 2.37243 7.19583 2.20212 6.19348 2.20212 4.85468 2.20212 3.52145 2.37243 2.52118 2.71303 1.85387 3.05503 1.18656 3.56455 0.852906 4.24159 0.852906 4.9242 0.852906 5.4358 1.18656 5.77641 1.85387 6.1184 2.52118 6.2894 3.52145 6.2894 4.85468 6.2894 6.19348 6.1184 7.19583 5.77641 7.86175 5.4358 8.52906 4.9242 8.86272 4.24159 8.86272ZM4.24159 9.90539C5.33292 9.90539 6.16637 9.47373 6.74192 8.61039 7.31748 7.74845 7.60526 6.49655 7.60526 4.85468 7.60526 3.21699 7.31748 1.96648 6.74192 1.10315 6.16637 0.241205 5.33292-0.189766 4.24159-0.189766 3.15165-0.189766 2.3189 0.241205 1.74335 1.10315 1.16779 1.96648 0.880016 3.21699 0.880016 4.85468 0.880016 6.49655 1.16779 7.74845 1.74335 8.61039 2.3189 9.47373 3.15165 9.90539 4.24159 9.90539Z" fill="#262626" transform="matrix(1.00216 0 0 -1 945.608 306.234)"/><path d="M1.42638 1.65576 2.8027 1.65576 2.8027 0 1.42638 0 1.42638 1.65576Z" fill="#262626" transform="matrix(1.00216 0 0 -1 954.117 306.234)"/><path d="M1.65576 1.10732 3.80576 1.10732 3.80576 8.53115 1.466 8.06195 1.466 9.26102 3.79324 9.73022 5.1091 9.73022 5.1091 1.10732 7.25909 1.10732 7.25909 0 1.65576 0 1.65576 1.10732Z" fill="#262626" transform="matrix(1.00216 0 0 -1 958.369 306.234)"/><path d="M1.09481 9.73022 7.35084 9.73022 7.35084 9.16926 3.81827 0 2.44403 0 5.76807 8.62082 1.09481 8.62082 1.09481 9.73022Z" fill="#262626" transform="matrix(1.00216 0 0 -1 966.879 306.234)"/><path d="M0.652713 4.18946 4.16443 4.18946 4.16443 3.12176 0.652713 3.12176 0.652713 4.18946Z" fill="#FFFFFF" transform="matrix(1.00216 0 0 -1 987.862 306.234)"/><path d="M4.24159 8.86272C3.56455 8.86272 3.05503 8.52906 2.71303 7.86175 2.37243 7.19583 2.20212 6.19348 2.20212 4.85468 2.20212 3.52145 2.37243 2.52118 2.71303 1.85387 3.05503 1.18656 3.56455 0.852906 4.24159 0.852906 4.9242 0.852906 5.4358 1.18656 5.77641 1.85387 6.1184 2.52118 6.2894 3.52145 6.2894 4.85468 6.2894 6.19348 6.1184 7.19583 5.77641 7.86175 5.4358 8.52906 4.9242 8.86272 4.24159 8.86272ZM4.24159 9.90539C5.33292 9.90539 6.16637 9.47373 6.74192 8.61039 7.31748 7.74845 7.60526 6.49655 7.60526 4.85468 7.60526 3.21699 7.31748 1.96648 6.74192 1.10315 6.16637 0.241205 5.33292-0.189766 4.24159-0.189766 3.15165-0.189766 2.3189 0.241205 1.74335 1.10315 1.16779 1.96648 0.880016 3.21699 0.880016 4.85468 0.880016 6.49655 1.16779 7.74845 1.74335 8.61039 2.3189 9.47373 3.15165 9.90539 4.24159 9.90539Z" fill="#FFFFFF" transform="matrix(1.00216 0 0 -1 992.688 306.234)"/><path d="M1.42638 1.65576 2.8027 1.65576 2.8027 0 1.42638 0 1.42638 1.65576Z" fill="#FFFFFF" transform="matrix(1.00216 0 0 -1 1001.2 306.234)"/><path d="M1.466 0.202279 1.466 1.40135C1.79687 1.24426 2.13122 1.1247 2.46905 1.04267 2.80827 0.960649 3.14123 0.919637 3.46793 0.919637 4.33682 0.919637 4.99996 1.21159 5.45735 1.79548 5.91613 2.37938 6.17818 3.26704 6.24352 4.45847 5.99189 4.0845 5.67214 3.79741 5.28427 3.59722 4.89778 3.39703 4.47029 3.29693 4.00178 3.29693 3.02862 3.29693 2.25843 3.59097 1.69122 4.17903 1.124 4.76849 0.840394 5.57413 0.840394 6.59595 0.840394 7.59413 1.13582 8.39491 1.72667 8.99827 2.31751 9.60302 3.10369 9.90539 4.08519 9.90539 5.21128 9.90539 6.07044 9.47373 6.66268 8.61039 7.25631 7.74845 7.55312 6.49655 7.55312 4.85468 7.55312 3.32126 7.18888 2.09716 6.4604 1.18239 5.73331 0.267619 4.75528-0.189766 3.52632-0.189766 3.19544-0.189766 2.8604-0.157096 2.52118-0.0917552 2.18336-0.0264144 1.83163 0.0715969 1.466 0.202279ZM4.08519 4.32709C4.67604 4.32709 5.14385 4.52868 5.48863 4.93184 5.8348 5.3364 6.00788 5.8911 6.00788 6.59595 6.00788 7.29523 5.8348 7.84785 5.48863 8.2538 5.14385 8.65974 4.67604 8.86272 4.08519 8.86272 3.49434 8.86272 3.02653 8.65974 2.68175 8.2538 2.33698 7.84785 2.16459 7.29523 2.16459 6.59595 2.16459 5.8911 2.33698 5.3364 2.68175 4.93184 3.02653 4.52868 3.49434 4.32709 4.08519 4.32709Z" fill="#FFFFFF" transform="matrix(1.00216 0 0 -1 1005.45 306.234)"/><path d="M1.466 0.202279 1.466 1.40135C1.79687 1.24426 2.13122 1.1247 2.46905 1.04267 2.80827 0.960649 3.14123 0.919637 3.46793 0.919637 4.33682 0.919637 4.99996 1.21159 5.45735 1.79548 5.91613 2.37938 6.17818 3.26704 6.24352 4.45847 5.99189 4.0845 5.67214 3.79741 5.28427 3.59722 4.89778 3.39703 4.47029 3.29693 4.00178 3.29693 3.02862 3.29693 2.25843 3.59097 1.69122 4.17903 1.124 4.76849 0.840394 5.57413 0.840394 6.59595 0.840394 7.59413 1.13582 8.39491 1.72667 8.99827 2.31751 9.60302 3.10369 9.90539 4.08519 9.90539 5.21128 9.90539 6.07044 9.47373 6.66268 8.61039 7.25631 7.74845 7.55312 6.49655 7.55312 4.85468 7.55312 3.32126 7.18888 2.09716 6.4604 1.18239 5.73331 0.267619 4.75528-0.189766 3.52632-0.189766 3.19544-0.189766 2.8604-0.157096 2.52118-0.0917552 2.18336-0.0264144 1.83163 0.0715969 1.466 0.202279ZM4.08519 4.32709C4.67604 4.32709 5.14385 4.52868 5.48863 4.93184 5.8348 5.3364 6.00788 5.8911 6.00788 6.59595 6.00788 7.29523 5.8348 7.84785 5.48863 8.2538 5.14385 8.65974 4.67604 8.86272 4.08519 8.86272 3.49434 8.86272 3.02653 8.65974 2.68175 8.2538 2.33698 7.84785 2.16459 7.29523 2.16459 6.59595 2.16459 5.8911 2.33698 5.3364 2.68175 4.93184 3.02653 4.52868 3.49434 4.32709 4.08519 4.32709Z" fill="#FFFFFF" transform="matrix(1.00216 0 0 -1 1013.96 306.234)"/><path d="M0.652713 4.18946 4.16443 4.18946 4.16443 3.12176 0.652713 3.12176 0.652713 4.18946Z" fill="#262626" transform="matrix(1.00216 0 0 -1 1034.94 306.234)"/><path d="M4.24159 8.86272C3.56455 8.86272 3.05503 8.52906 2.71303 7.86175 2.37243 7.19583 2.20212 6.19348 2.20212 4.85468 2.20212 3.52145 2.37243 2.52118 2.71303 1.85387 3.05503 1.18656 3.56455 0.852906 4.24159 0.852906 4.9242 0.852906 5.4358 1.18656 5.77641 1.85387 6.1184 2.52118 6.2894 3.52145 6.2894 4.85468 6.2894 6.19348 6.1184 7.19583 5.77641 7.86175 5.4358 8.52906 4.9242 8.86272 4.24159 8.86272ZM4.24159 9.90539C5.33292 9.90539 6.16637 9.47373 6.74192 8.61039 7.31748 7.74845 7.60526 6.49655 7.60526 4.85468 7.60526 3.21699 7.31748 1.96648 6.74192 1.10315 6.16637 0.241205 5.33292-0.189766 4.24159-0.189766 3.15165-0.189766 2.3189 0.241205 1.74335 1.10315 1.16779 1.96648 0.880016 3.21699 0.880016 4.85468 0.880016 6.49655 1.16779 7.74845 1.74335 8.61039 2.3189 9.47373 3.15165 9.90539 4.24159 9.90539Z" fill="#262626" transform="matrix(1.00216 0 0 -1 1039.77 306.234)"/><path d="M1.42638 1.65576 2.8027 1.65576 2.8027 0 1.42638 0 1.42638 1.65576Z" fill="#262626" transform="matrix(1.00216 0 0 -1 1048.28 306.234)"/><path d="M4.40634 5.38853C3.81549 5.38853 3.34698 5.18625 3.00081 4.7817 2.65603 4.37853 2.48365 3.82522 2.48365 3.12176 2.48365 2.42248 2.65603 1.86916 3.00081 1.46183 3.34698 1.05588 3.81549 0.852906 4.40634 0.852906 4.99718 0.852906 5.465 1.05588 5.80977 1.46183 6.15455 1.86916 6.32694 2.42248 6.32694 3.12176 6.32694 3.82522 6.15455 4.37853 5.80977 4.7817 5.465 5.18625 4.99718 5.38853 4.40634 5.38853ZM7.01927 9.51543 7.01927 8.31636C6.6884 8.47206 6.35474 8.59093 6.01831 8.67295 5.68187 8.75637 5.34822 8.79807 5.01734 8.79807 4.14845 8.79807 3.48461 8.50473 3.02584 7.91806 2.56845 7.33138 2.30709 6.44511 2.24175 5.25924 2.49755 5.63738 2.81869 5.92725 3.20518 6.12883 3.59305 6.33041 4.01916 6.43121 4.48349 6.43121 5.46082 6.43121 6.2331 6.13439 6.80031 5.54076 7.36753 4.94852 7.65113 4.14219 7.65113 3.12176 7.65113 2.12219 7.35571 1.32002 6.76486 0.715273 6.17401 0.111914 5.38784-0.189766 4.40634-0.189766 3.28025-0.189766 2.4197 0.241205 1.82468 1.10315 1.22966 1.96648 0.932149 3.21699 0.932149 4.85468 0.932149 6.39228 1.29708 7.61846 2.02696 8.53323 2.75683 9.44801 3.73624 9.90539 4.96521 9.90539 5.29608 9.90539 5.62974 9.87272 5.96617 9.80738 6.30261 9.74204 6.65364 9.64472 7.01927 9.51543Z" fill="#262626" transform="matrix(1.00216 0 0 -1 1052.53 306.234)"/><path d="M1.466 0.202279 1.466 1.40135C1.79687 1.24426 2.13122 1.1247 2.46905 1.04267 2.80827 0.960649 3.14123 0.919637 3.46793 0.919637 4.33682 0.919637 4.99996 1.21159 5.45735 1.79548 5.91613 2.37938 6.17818 3.26704 6.24352 4.45847 5.99189 4.0845 5.67214 3.79741 5.28427 3.59722 4.89778 3.39703 4.47029 3.29693 4.00178 3.29693 3.02862 3.29693 2.25843 3.59097 1.69122 4.17903 1.124 4.76849 0.840394 5.57413 0.840394 6.59595 0.840394 7.59413 1.13582 8.39491 1.72667 8.99827 2.31751 9.60302 3.10369 9.90539 4.08519 9.90539 5.21128 9.90539 6.07044 9.47373 6.66268 8.61039 7.25631 7.74845 7.55312 6.49655 7.55312 4.85468 7.55312 3.32126 7.18888 2.09716 6.4604 1.18239 5.73331 0.267619 4.75528-0.189766 3.52632-0.189766 3.19544-0.189766 2.8604-0.157096 2.52118-0.0917552 2.18336-0.0264144 1.83163 0.0715969 1.466 0.202279ZM4.08519 4.32709C4.67604 4.32709 5.14385 4.52868 5.48863 4.93184 5.8348 5.3364 6.00788 5.8911 6.00788 6.59595 6.00788 7.29523 5.8348 7.84785 5.48863 8.2538 5.14385 8.65974 4.67604 8.86272 4.08519 8.86272 3.49434 8.86272 3.02653 8.65974 2.68175 8.2538 2.33698 7.84785 2.16459 7.29523 2.16459 6.59595 2.16459 5.8911 2.33698 5.3364 2.68175 4.93184 3.02653 4.52868 3.49434 4.32709 4.08519 4.32709Z" fill="#262626" transform="matrix(1.00216 0 0 -1 1061.04 306.234)"/><path d="M1.65576 1.10732 3.80576 1.10732 3.80576 8.53115 1.466 8.06195 1.466 9.26102 3.79324 9.73022 5.1091 9.73022 5.1091 1.10732 7.25909 1.10732 7.25909 0 1.65576 0 1.65576 1.10732Z" fill="#FFFFFF" transform="matrix(1.00216 0 0 -1 900.369 353.213)"/><path d="M1.42638 1.65576 2.8027 1.65576 2.8027 0 1.42638 0 1.42638 1.65576Z" fill="#FFFFFF" transform="matrix(1.00216 0 0 -1 908.879 353.213)"/><path d="M1.65576 1.10732 3.80576 1.10732 3.80576 8.53115 1.466 8.06195 1.466 9.26102 3.79324 9.73022 5.1091 9.73022 5.1091 1.10732 7.25909 1.10732 7.25909 0 1.65576 0 1.65576 1.10732Z" fill="#FFFFFF" transform="matrix(1.00216 0 0 -1 913.13 353.213)"/><path d="M4.24159 8.86272C3.56455 8.86272 3.05503 8.52906 2.71303 7.86175 2.37243 7.19583 2.20212 6.19348 2.20212 4.85468 2.20212 3.52145 2.37243 2.52118 2.71303 1.85387 3.05503 1.18656 3.56455 0.852906 4.24159 0.852906 4.9242 0.852906 5.4358 1.18656 5.77641 1.85387 6.1184 2.52118 6.2894 3.52145 6.2894 4.85468 6.2894 6.19348 6.1184 7.19583 5.77641 7.86175 5.4358 8.52906 4.9242 8.86272 4.24159 8.86272ZM4.24159 9.90539C5.33292 9.90539 6.16637 9.47373 6.74192 8.61039 7.31748 7.74845 7.60526 6.49655 7.60526 4.85468 7.60526 3.21699 7.31748 1.96648 6.74192 1.10315 6.16637 0.241205 5.33292-0.189766 4.24159-0.189766 3.15165-0.189766 2.3189 0.241205 1.74335 1.10315 1.16779 1.96648 0.880016 3.21699 0.880016 4.85468 0.880016 6.49655 1.16779 7.74845 1.74335 8.61039 2.3189 9.47373 3.15165 9.90539 4.24159 9.90539Z" fill="#262626" transform="matrix(1.00216 0 0 -1 943.194 353.213)"/><path d="M1.42638 1.65576 2.8027 1.65576 2.8027 0 1.42638 0 1.42638 1.65576Z" fill="#262626" transform="matrix(1.00216 0 0 -1 951.704 353.213)"/><path d="M2.5608 1.10732 7.15482 1.10732 7.15482 0 0.978027 0 0.978027 1.10732C1.47712 1.62448 2.15764 2.31821 3.01958 3.18849 3.88291 4.06017 4.4251 4.62252 4.64615 4.87554 5.06739 5.34822 5.36142 5.7486 5.52825 6.0767 5.69647 6.40479 5.78058 6.72732 5.78058 7.0443 5.78058 7.56146 5.59915 7.9827 5.2363 8.30802 4.87345 8.63472 4.40077 8.79807 3.81827 8.79807 3.40537 8.79807 2.96953 8.72648 2.51076 8.58328 2.05337 8.44009 1.56401 8.22252 1.04267 7.93057L1.04267 9.26102C1.57235 9.47373 2.06727 9.6343 2.52744 9.74273 2.989 9.85117 3.41093 9.90539 3.79324 9.90539 4.80116 9.90539 5.60471 9.65306 6.2039 9.14841 6.80309 8.64515 7.10269 7.97228 7.10269 7.1298 7.10269 6.72941 7.02761 6.34988 6.87747 5.9912 6.72872 5.63391 6.45623 5.21197 6.06001 4.72539 5.95158 4.59888 5.6061 4.23464 5.0236 3.63267 4.44248 3.0307 3.62155 2.18892 2.5608 1.10732Z" fill="#262626" transform="matrix(1.00216 0 0 -1 955.956 353.213)"/><path d="M4.40634 5.38853C3.81549 5.38853 3.34698 5.18625 3.00081 4.7817 2.65603 4.37853 2.48365 3.82522 2.48365 3.12176 2.48365 2.42248 2.65603 1.86916 3.00081 1.46183 3.34698 1.05588 3.81549 0.852906 4.40634 0.852906 4.99718 0.852906 5.465 1.05588 5.80977 1.46183 6.15455 1.86916 6.32694 2.42248 6.32694 3.12176 6.32694 3.82522 6.15455 4.37853 5.80977 4.7817 5.465 5.18625 4.99718 5.38853 4.40634 5.38853ZM7.01927 9.51543 7.01927 8.31636C6.6884 8.47206 6.35474 8.59093 6.01831 8.67295 5.68187 8.75637 5.34822 8.79807 5.01734 8.79807 4.14845 8.79807 3.48461 8.50473 3.02584 7.91806 2.56845 7.33138 2.30709 6.44511 2.24175 5.25924 2.49755 5.63738 2.81869 5.92725 3.20518 6.12883 3.59305 6.33041 4.01916 6.43121 4.48349 6.43121 5.46082 6.43121 6.2331 6.13439 6.80031 5.54076 7.36753 4.94852 7.65113 4.14219 7.65113 3.12176 7.65113 2.12219 7.35571 1.32002 6.76486 0.715273 6.17401 0.111914 5.38784-0.189766 4.40634-0.189766 3.28025-0.189766 2.4197 0.241205 1.82468 1.10315 1.22966 1.96648 0.932149 3.21699 0.932149 4.85468 0.932149 6.39228 1.29708 7.61846 2.02696 8.53323 2.75683 9.44801 3.73624 9.90539 4.96521 9.90539 5.29608 9.90539 5.62974 9.87272 5.96617 9.80738 6.30261 9.74204 6.65364 9.64472 7.01927 9.51543Z" fill="#262626" transform="matrix(1.00216 0 0 -1 964.465 353.213)"/><path d="M0.652713 4.18946 4.16443 4.18946 4.16443 3.12176 0.652713 3.12176 0.652713 4.18946Z" fill="#FFFFFF" transform="matrix(1.00216 0 0 -1 992.117 353.213)"/><path d="M1.65576 1.10732 3.80576 1.10732 3.80576 8.53115 1.466 8.06195 1.466 9.26102 3.79324 9.73022 5.1091 9.73022 5.1091 1.10732 7.25909 1.10732 7.25909 0 1.65576 0 1.65576 1.10732Z" fill="#FFFFFF" transform="matrix(1.00216 0 0 -1 996.943 353.213)"/><path d="M1.42638 1.65576 2.8027 1.65576 2.8027 0 1.42638 0 1.42638 1.65576Z" fill="#FFFFFF" transform="matrix(1.00216 0 0 -1 1005.45 353.213)"/><path d="M2.5608 1.10732 7.15482 1.10732 7.15482 0 0.978027 0 0.978027 1.10732C1.47712 1.62448 2.15764 2.31821 3.01958 3.18849 3.88291 4.06017 4.4251 4.62252 4.64615 4.87554 5.06739 5.34822 5.36142 5.7486 5.52825 6.0767 5.69647 6.40479 5.78058 6.72732 5.78058 7.0443 5.78058 7.56146 5.59915 7.9827 5.2363 8.30802 4.87345 8.63472 4.40077 8.79807 3.81827 8.79807 3.40537 8.79807 2.96953 8.72648 2.51076 8.58328 2.05337 8.44009 1.56401 8.22252 1.04267 7.93057L1.04267 9.26102C1.57235 9.47373 2.06727 9.6343 2.52744 9.74273 2.989 9.85117 3.41093 9.90539 3.79324 9.90539 4.80116 9.90539 5.60471 9.65306 6.2039 9.14841 6.80309 8.64515 7.10269 7.97228 7.10269 7.1298 7.10269 6.72941 7.02761 6.34988 6.87747 5.9912 6.72872 5.63391 6.45623 5.21197 6.06001 4.72539 5.95158 4.59888 5.6061 4.23464 5.0236 3.63267 4.44248 3.0307 3.62155 2.18892 2.5608 1.10732Z" fill="#FFFFFF" transform="matrix(1.00216 0 0 -1 1009.7 353.213)"/><path d="M0.652713 4.18946 4.16443 4.18946 4.16443 3.12176 0.652713 3.12176 0.652713 4.18946Z" fill="#262626" transform="matrix(1.00216 0 0 -1 1034.94 353.213)"/><path d="M4.24159 8.86272C3.56455 8.86272 3.05503 8.52906 2.71303 7.86175 2.37243 7.19583 2.20212 6.19348 2.20212 4.85468 2.20212 3.52145 2.37243 2.52118 2.71303 1.85387 3.05503 1.18656 3.56455 0.852906 4.24159 0.852906 4.9242 0.852906 5.4358 1.18656 5.77641 1.85387 6.1184 2.52118 6.2894 3.52145 6.2894 4.85468 6.2894 6.19348 6.1184 7.19583 5.77641 7.86175 5.4358 8.52906 4.9242 8.86272 4.24159 8.86272ZM4.24159 9.90539C5.33292 9.90539 6.16637 9.47373 6.74192 8.61039 7.31748 7.74845 7.60526 6.49655 7.60526 4.85468 7.60526 3.21699 7.31748 1.96648 6.74192 1.10315 6.16637 0.241205 5.33292-0.189766 4.24159-0.189766 3.15165-0.189766 2.3189 0.241205 1.74335 1.10315 1.16779 1.96648 0.880016 3.21699 0.880016 4.85468 0.880016 6.49655 1.16779 7.74845 1.74335 8.61039 2.3189 9.47373 3.15165 9.90539 4.24159 9.90539Z" fill="#262626" transform="matrix(1.00216 0 0 -1 1039.77 353.213)"/><path d="M1.42638 1.65576 2.8027 1.65576 2.8027 0 1.42638 0 1.42638 1.65576Z" fill="#262626" transform="matrix(1.00216 0 0 -1 1048.28 353.213)"/><path d="M5.04445 8.58328 1.72041 3.38869 5.04445 3.38869 5.04445 8.58328ZM4.69828 9.73022 6.35405 9.73022 6.35405 3.38869 7.74289 3.38869 7.74289 2.29388 6.35405 2.29388 6.35405 0 5.04445 0 5.04445 2.29388 0.652713 2.29388 0.652713 3.56386 4.69828 9.73022Z" fill="#262626" transform="matrix(1.00216 0 0 -1 1052.53 353.213)"/><path d="M5.04445 8.58328 1.72041 3.38869 5.04445 3.38869 5.04445 8.58328ZM4.69828 9.73022 6.35405 9.73022 6.35405 3.38869 7.74289 3.38869 7.74289 2.29388 6.35405 2.29388 6.35405 0 5.04445 0 5.04445 2.29388 0.652713 2.29388 0.652713 3.56386 4.69828 9.73022Z" fill="#262626" transform="matrix(1.00216 0 0 -1 1061.04 353.213)"/><path d="M4.24159 8.86272C3.56455 8.86272 3.05503 8.52906 2.71303 7.86175 2.37243 7.19583 2.20212 6.19348 2.20212 4.85468 2.20212 3.52145 2.37243 2.52118 2.71303 1.85387 3.05503 1.18656 3.56455 0.852906 4.24159 0.852906 4.9242 0.852906 5.4358 1.18656 5.77641 1.85387 6.1184 2.52118 6.2894 3.52145 6.2894 4.85468 6.2894 6.19348 6.1184 7.19583 5.77641 7.86175 5.4358 8.52906 4.9242 8.86272 4.24159 8.86272ZM4.24159 9.90539C5.33292 9.90539 6.16637 9.47373 6.74192 8.61039 7.31748 7.74845 7.60526 6.49655 7.60526 4.85468 7.60526 3.21699 7.31748 1.96648 6.74192 1.10315 6.16637 0.241205 5.33292-0.189766 4.24159-0.189766 3.15165-0.189766 2.3189 0.241205 1.74335 1.10315 1.16779 1.96648 0.880016 3.21699 0.880016 4.85468 0.880016 6.49655 1.16779 7.74845 1.74335 8.61039 2.3189 9.47373 3.15165 9.90539 4.24159 9.90539Z" fill="#262626" transform="matrix(1.00216 0 0 -1 896.114 400.192)"/><path d="M1.42638 1.65576 2.8027 1.65576 2.8027 0 1.42638 0 1.42638 1.65576Z" fill="#262626" transform="matrix(1.00216 0 0 -1 904.624 400.192)"/><path d="M5.04445 8.58328 1.72041 3.38869 5.04445 3.38869 5.04445 8.58328ZM4.69828 9.73022 6.35405 9.73022 6.35405 3.38869 7.74289 3.38869 7.74289 2.29388 6.35405 2.29388 6.35405 0 5.04445 0 5.04445 2.29388 0.652713 2.29388 0.652713 3.56386 4.69828 9.73022Z" fill="#262626" transform="matrix(1.00216 0 0 -1 908.875 400.192)"/><path d="M5.41564 5.24673C6.04542 5.11188 6.53686 4.83105 6.88998 4.40425 7.24449 3.97884 7.42174 3.45333 7.42174 2.82773 7.42174 1.86847 7.09157 1.12539 6.43121 0.598494 5.77085 0.0729871 4.83244-0.189766 3.61599-0.189766 3.20865-0.189766 2.7888-0.14945 2.35644-0.0688164 1.92408 0.011817 1.47781 0.132767 1.01765 0.294034L1.01765 1.56401C1.38189 1.3513 1.78089 1.19073 2.21464 1.08229 2.64978 0.973856 3.10438 0.919637 3.57845 0.919637 4.40286 0.919637 5.03124 1.08229 5.46361 1.40761 5.89597 1.73292 6.11215 2.2063 6.11215 2.82773 6.11215 3.40189 5.91126 3.85024 5.50948 4.17278 5.10771 4.4967 4.54883 4.65866 3.83287 4.65866L2.69844 4.65866 2.69844 5.74096 3.885 5.74096C4.53146 5.74096 5.02638 5.87025 5.36976 6.12883 5.71315 6.38741 5.88485 6.76 5.88485 7.24658 5.88485 7.74567 5.70759 8.12868 5.35308 8.3956 4.99996 8.66392 4.49322 8.79807 3.83287 8.79807 3.47141 8.79807 3.08423 8.75845 2.67133 8.67921 2.25843 8.60135 1.80452 8.48041 1.3096 8.31636L1.3096 9.48832C1.81008 9.62735 2.27859 9.73161 2.71512 9.80112 3.15165 9.87064 3.56316 9.90539 3.94964 9.90539 4.94922 9.90539 5.73957 9.67809 6.32068 9.22348 6.90319 8.77027 7.19444 8.15718 7.19444 7.38421 7.19444 6.8448 7.04013 6.3895 6.7315 6.01831 6.42286 5.64712 5.98425 5.38992 5.41564 5.24673Z" fill="#262626" transform="matrix(1.00216 0 0 -1 917.385 400.192)"/><path d="M4.24159 8.86272C3.56455 8.86272 3.05503 8.52906 2.71303 7.86175 2.37243 7.19583 2.20212 6.19348 2.20212 4.85468 2.20212 3.52145 2.37243 2.52118 2.71303 1.85387 3.05503 1.18656 3.56455 0.852906 4.24159 0.852906 4.9242 0.852906 5.4358 1.18656 5.77641 1.85387 6.1184 2.52118 6.2894 3.52145 6.2894 4.85468 6.2894 6.19348 6.1184 7.19583 5.77641 7.86175 5.4358 8.52906 4.9242 8.86272 4.24159 8.86272ZM4.24159 9.90539C5.33292 9.90539 6.16637 9.47373 6.74192 8.61039 7.31748 7.74845 7.60526 6.49655 7.60526 4.85468 7.60526 3.21699 7.31748 1.96648 6.74192 1.10315 6.16637 0.241205 5.33292-0.189766 4.24159-0.189766 3.15165-0.189766 2.3189 0.241205 1.74335 1.10315 1.16779 1.96648 0.880016 3.21699 0.880016 4.85468 0.880016 6.49655 1.16779 7.74845 1.74335 8.61039 2.3189 9.47373 3.15165 9.90539 4.24159 9.90539Z" fill="#262626" transform="matrix(1.00216 0 0 -1 947.449 400.192)"/><path d="M1.42638 1.65576 2.8027 1.65576 2.8027 0 1.42638 0 1.42638 1.65576Z" fill="#262626" transform="matrix(1.00216 0 0 -1 955.959 400.192)"/><path d="M2.5608 1.10732 7.15482 1.10732 7.15482 0 0.978027 0 0.978027 1.10732C1.47712 1.62448 2.15764 2.31821 3.01958 3.18849 3.88291 4.06017 4.4251 4.62252 4.64615 4.87554 5.06739 5.34822 5.36142 5.7486 5.52825 6.0767 5.69647 6.40479 5.78058 6.72732 5.78058 7.0443 5.78058 7.56146 5.59915 7.9827 5.2363 8.30802 4.87345 8.63472 4.40077 8.79807 3.81827 8.79807 3.40537 8.79807 2.96953 8.72648 2.51076 8.58328 2.05337 8.44009 1.56401 8.22252 1.04267 7.93057L1.04267 9.26102C1.57235 9.47373 2.06727 9.6343 2.52744 9.74273 2.989 9.85117 3.41093 9.90539 3.79324 9.90539 4.80116 9.90539 5.60471 9.65306 6.2039 9.14841 6.80309 8.64515 7.10269 7.97228 7.10269 7.1298 7.10269 6.72941 7.02761 6.34988 6.87747 5.9912 6.72872 5.63391 6.45623 5.21197 6.06001 4.72539 5.95158 4.59888 5.6061 4.23464 5.0236 3.63267 4.44248 3.0307 3.62155 2.18892 2.5608 1.10732Z" fill="#262626" transform="matrix(1.00216 0 0 -1 960.21 400.192)"/><path d="M4.24159 8.86272C3.56455 8.86272 3.05503 8.52906 2.71303 7.86175 2.37243 7.19583 2.20212 6.19348 2.20212 4.85468 2.20212 3.52145 2.37243 2.52118 2.71303 1.85387 3.05503 1.18656 3.56455 0.852906 4.24159 0.852906 4.9242 0.852906 5.4358 1.18656 5.77641 1.85387 6.1184 2.52118 6.2894 3.52145 6.2894 4.85468 6.2894 6.19348 6.1184 7.19583 5.77641 7.86175 5.4358 8.52906 4.9242 8.86272 4.24159 8.86272ZM4.24159 9.90539C5.33292 9.90539 6.16637 9.47373 6.74192 8.61039 7.31748 7.74845 7.60526 6.49655 7.60526 4.85468 7.60526 3.21699 7.31748 1.96648 6.74192 1.10315 6.16637 0.241205 5.33292-0.189766 4.24159-0.189766 3.15165-0.189766 2.3189 0.241205 1.74335 1.10315 1.16779 1.96648 0.880016 3.21699 0.880016 4.85468 0.880016 6.49655 1.16779 7.74845 1.74335 8.61039 2.3189 9.47373 3.15165 9.90539 4.24159 9.90539Z" fill="#262626" transform="matrix(1.00216 0 0 -1 990.274 400.192)"/><path d="M1.42638 1.65576 2.8027 1.65576 2.8027 0 1.42638 0 1.42638 1.65576Z" fill="#262626" transform="matrix(1.00216 0 0 -1 998.784 400.192)"/><path d="M1.09481 9.73022 7.35084 9.73022 7.35084 9.16926 3.81827 0 2.44403 0 5.76807 8.62082 1.09481 8.62082 1.09481 9.73022Z" fill="#262626" transform="matrix(1.00216 0 0 -1 1003.04 400.192)"/><path d="M5.04445 8.58328 1.72041 3.38869 5.04445 3.38869 5.04445 8.58328ZM4.69828 9.73022 6.35405 9.73022 6.35405 3.38869 7.74289 3.38869 7.74289 2.29388 6.35405 2.29388 6.35405 0 5.04445 0 5.04445 2.29388 0.652713 2.29388 0.652713 3.56386 4.69828 9.73022Z" fill="#262626" transform="matrix(1.00216 0 0 -1 1011.55 400.192)"/><path d="M0.652713 4.18946 4.16443 4.18946 4.16443 3.12176 0.652713 3.12176 0.652713 4.18946Z" fill="#FFFFFF" transform="matrix(1.00216 0 0 -1 1039.2 400.192)"/><path d="M1.65576 1.10732 3.80576 1.10732 3.80576 8.53115 1.466 8.06195 1.466 9.26102 3.79324 9.73022 5.1091 9.73022 5.1091 1.10732 7.25909 1.10732 7.25909 0 1.65576 0 1.65576 1.10732Z" fill="#FFFFFF" transform="matrix(1.00216 0 0 -1 1044.02 400.192)"/><path d="M1.42638 1.65576 2.8027 1.65576 2.8027 0 1.42638 0 1.42638 1.65576Z" fill="#FFFFFF" transform="matrix(1.00216 0 0 -1 1052.53 400.192)"/><path d="M1.65576 1.10732 3.80576 1.10732 3.80576 8.53115 1.466 8.06195 1.466 9.26102 3.79324 9.73022 5.1091 9.73022 5.1091 1.10732 7.25909 1.10732 7.25909 0 1.65576 0 1.65576 1.10732Z" fill="#FFFFFF" transform="matrix(1.00216 0 0 -1 1056.78 400.192)"/><path d="M4.24159 8.86272C3.56455 8.86272 3.05503 8.52906 2.71303 7.86175 2.37243 7.19583 2.20212 6.19348 2.20212 4.85468 2.20212 3.52145 2.37243 2.52118 2.71303 1.85387 3.05503 1.18656 3.56455 0.852906 4.24159 0.852906 4.9242 0.852906 5.4358 1.18656 5.77641 1.85387 6.1184 2.52118 6.2894 3.52145 6.2894 4.85468 6.2894 6.19348 6.1184 7.19583 5.77641 7.86175 5.4358 8.52906 4.9242 8.86272 4.24159 8.86272ZM4.24159 9.90539C5.33292 9.90539 6.16637 9.47373 6.74192 8.61039 7.31748 7.74845 7.60526 6.49655 7.60526 4.85468 7.60526 3.21699 7.31748 1.96648 6.74192 1.10315 6.16637 0.241205 5.33292-0.189766 4.24159-0.189766 3.15165-0.189766 2.3189 0.241205 1.74335 1.10315 1.16779 1.96648 0.880016 3.21699 0.880016 4.85468 0.880016 6.49655 1.16779 7.74845 1.74335 8.61039 2.3189 9.47373 3.15165 9.90539 4.24159 9.90539Z" fill="#262626" transform="matrix(1.00216 0 0 -1 896.114 447.17)"/><path d="M1.42638 1.65576 2.8027 1.65576 2.8027 0 1.42638 0 1.42638 1.65576Z" fill="#262626" transform="matrix(1.00216 0 0 -1 904.624 447.17)"/><path d="M4.40634 5.38853C3.81549 5.38853 3.34698 5.18625 3.00081 4.7817 2.65603 4.37853 2.48365 3.82522 2.48365 3.12176 2.48365 2.42248 2.65603 1.86916 3.00081 1.46183 3.34698 1.05588 3.81549 0.852906 4.40634 0.852906 4.99718 0.852906 5.465 1.05588 5.80977 1.46183 6.15455 1.86916 6.32694 2.42248 6.32694 3.12176 6.32694 3.82522 6.15455 4.37853 5.80977 4.7817 5.465 5.18625 4.99718 5.38853 4.40634 5.38853ZM7.01927 9.51543 7.01927 8.31636C6.6884 8.47206 6.35474 8.59093 6.01831 8.67295 5.68187 8.75637 5.34822 8.79807 5.01734 8.79807 4.14845 8.79807 3.48461 8.50473 3.02584 7.91806 2.56845 7.33138 2.30709 6.44511 2.24175 5.25924 2.49755 5.63738 2.81869 5.92725 3.20518 6.12883 3.59305 6.33041 4.01916 6.43121 4.48349 6.43121 5.46082 6.43121 6.2331 6.13439 6.80031 5.54076 7.36753 4.94852 7.65113 4.14219 7.65113 3.12176 7.65113 2.12219 7.35571 1.32002 6.76486 0.715273 6.17401 0.111914 5.38784-0.189766 4.40634-0.189766 3.28025-0.189766 2.4197 0.241205 1.82468 1.10315 1.22966 1.96648 0.932149 3.21699 0.932149 4.85468 0.932149 6.39228 1.29708 7.61846 2.02696 8.53323 2.75683 9.44801 3.73624 9.90539 4.96521 9.90539 5.29608 9.90539 5.62974 9.87272 5.96617 9.80738 6.30261 9.74204 6.65364 9.64472 7.01927 9.51543Z" fill="#262626" transform="matrix(1.00216 0 0 -1 908.875 447.17)"/><path d="M4.40634 5.38853C3.81549 5.38853 3.34698 5.18625 3.00081 4.7817 2.65603 4.37853 2.48365 3.82522 2.48365 3.12176 2.48365 2.42248 2.65603 1.86916 3.00081 1.46183 3.34698 1.05588 3.81549 0.852906 4.40634 0.852906 4.99718 0.852906 5.465 1.05588 5.80977 1.46183 6.15455 1.86916 6.32694 2.42248 6.32694 3.12176 6.32694 3.82522 6.15455 4.37853 5.80977 4.7817 5.465 5.18625 4.99718 5.38853 4.40634 5.38853ZM7.01927 9.51543 7.01927 8.31636C6.6884 8.47206 6.35474 8.59093 6.01831 8.67295 5.68187 8.75637 5.34822 8.79807 5.01734 8.79807 4.14845 8.79807 3.48461 8.50473 3.02584 7.91806 2.56845 7.33138 2.30709 6.44511 2.24175 5.25924 2.49755 5.63738 2.81869 5.92725 3.20518 6.12883 3.59305 6.33041 4.01916 6.43121 4.48349 6.43121 5.46082 6.43121 6.2331 6.13439 6.80031 5.54076 7.36753 4.94852 7.65113 4.14219 7.65113 3.12176 7.65113 2.12219 7.35571 1.32002 6.76486 0.715273 6.17401 0.111914 5.38784-0.189766 4.40634-0.189766 3.28025-0.189766 2.4197 0.241205 1.82468 1.10315 1.22966 1.96648 0.932149 3.21699 0.932149 4.85468 0.932149 6.39228 1.29708 7.61846 2.02696 8.53323 2.75683 9.44801 3.73624 9.90539 4.96521 9.90539 5.29608 9.90539 5.62974 9.87272 5.96617 9.80738 6.30261 9.74204 6.65364 9.64472 7.01927 9.51543Z" fill="#262626" transform="matrix(1.00216 0 0 -1 917.385 447.17)"/><path d="M0.652713 4.18946 4.16443 4.18946 4.16443 3.12176 0.652713 3.12176 0.652713 4.18946Z" fill="#262626" transform="matrix(1.00216 0 0 -1 945.037 447.17)"/><path d="M4.24159 8.86272C3.56455 8.86272 3.05503 8.52906 2.71303 7.86175 2.37243 7.19583 2.20212 6.19348 2.20212 4.85468 2.20212 3.52145 2.37243 2.52118 2.71303 1.85387 3.05503 1.18656 3.56455 0.852906 4.24159 0.852906 4.9242 0.852906 5.4358 1.18656 5.77641 1.85387 6.1184 2.52118 6.2894 3.52145 6.2894 4.85468 6.2894 6.19348 6.1184 7.19583 5.77641 7.86175 5.4358 8.52906 4.9242 8.86272 4.24159 8.86272ZM4.24159 9.90539C5.33292 9.90539 6.16637 9.47373 6.74192 8.61039 7.31748 7.74845 7.60526 6.49655 7.60526 4.85468 7.60526 3.21699 7.31748 1.96648 6.74192 1.10315 6.16637 0.241205 5.33292-0.189766 4.24159-0.189766 3.15165-0.189766 2.3189 0.241205 1.74335 1.10315 1.16779 1.96648 0.880016 3.21699 0.880016 4.85468 0.880016 6.49655 1.16779 7.74845 1.74335 8.61039 2.3189 9.47373 3.15165 9.90539 4.24159 9.90539Z" fill="#262626" transform="matrix(1.00216 0 0 -1 949.863 447.17)"/><path d="M1.42638 1.65576 2.8027 1.65576 2.8027 0 1.42638 0 1.42638 1.65576Z" fill="#262626" transform="matrix(1.00216 0 0 -1 958.372 447.17)"/><path d="M4.40634 5.38853C3.81549 5.38853 3.34698 5.18625 3.00081 4.7817 2.65603 4.37853 2.48365 3.82522 2.48365 3.12176 2.48365 2.42248 2.65603 1.86916 3.00081 1.46183 3.34698 1.05588 3.81549 0.852906 4.40634 0.852906 4.99718 0.852906 5.465 1.05588 5.80977 1.46183 6.15455 1.86916 6.32694 2.42248 6.32694 3.12176 6.32694 3.82522 6.15455 4.37853 5.80977 4.7817 5.465 5.18625 4.99718 5.38853 4.40634 5.38853ZM7.01927 9.51543 7.01927 8.31636C6.6884 8.47206 6.35474 8.59093 6.01831 8.67295 5.68187 8.75637 5.34822 8.79807 5.01734 8.79807 4.14845 8.79807 3.48461 8.50473 3.02584 7.91806 2.56845 7.33138 2.30709 6.44511 2.24175 5.25924 2.49755 5.63738 2.81869 5.92725 3.20518 6.12883 3.59305 6.33041 4.01916 6.43121 4.48349 6.43121 5.46082 6.43121 6.2331 6.13439 6.80031 5.54076 7.36753 4.94852 7.65113 4.14219 7.65113 3.12176 7.65113 2.12219 7.35571 1.32002 6.76486 0.715273 6.17401 0.111914 5.38784-0.189766 4.40634-0.189766 3.28025-0.189766 2.4197 0.241205 1.82468 1.10315 1.22966 1.96648 0.932149 3.21699 0.932149 4.85468 0.932149 6.39228 1.29708 7.61846 2.02696 8.53323 2.75683 9.44801 3.73624 9.90539 4.96521 9.90539 5.29608 9.90539 5.62974 9.87272 5.96617 9.80738 6.30261 9.74204 6.65364 9.64472 7.01927 9.51543Z" fill="#262626" transform="matrix(1.00216 0 0 -1 962.624 447.17)"/><path d="M4.24159 8.86272C3.56455 8.86272 3.05503 8.52906 2.71303 7.86175 2.37243 7.19583 2.20212 6.19348 2.20212 4.85468 2.20212 3.52145 2.37243 2.52118 2.71303 1.85387 3.05503 1.18656 3.56455 0.852906 4.24159 0.852906 4.9242 0.852906 5.4358 1.18656 5.77641 1.85387 6.1184 2.52118 6.2894 3.52145 6.2894 4.85468 6.2894 6.19348 6.1184 7.19583 5.77641 7.86175 5.4358 8.52906 4.9242 8.86272 4.24159 8.86272ZM4.24159 9.90539C5.33292 9.90539 6.16637 9.47373 6.74192 8.61039 7.31748 7.74845 7.60526 6.49655 7.60526 4.85468 7.60526 3.21699 7.31748 1.96648 6.74192 1.10315 6.16637 0.241205 5.33292-0.189766 4.24159-0.189766 3.15165-0.189766 2.3189 0.241205 1.74335 1.10315 1.16779 1.96648 0.880016 3.21699 0.880016 4.85468 0.880016 6.49655 1.16779 7.74845 1.74335 8.61039 2.3189 9.47373 3.15165 9.90539 4.24159 9.90539Z" fill="#262626" transform="matrix(1.00216 0 0 -1 990.274 447.17)"/><path d="M1.42638 1.65576 2.8027 1.65576 2.8027 0 1.42638 0 1.42638 1.65576Z" fill="#262626" transform="matrix(1.00216 0 0 -1 998.784 447.17)"/><path d="M1.09481 9.73022 7.35084 9.73022 7.35084 9.16926 3.81827 0 2.44403 0 5.76807 8.62082 1.09481 8.62082 1.09481 9.73022Z" fill="#262626" transform="matrix(1.00216 0 0 -1 1003.04 447.17)"/><path d="M5.41564 5.24673C6.04542 5.11188 6.53686 4.83105 6.88998 4.40425 7.24449 3.97884 7.42174 3.45333 7.42174 2.82773 7.42174 1.86847 7.09157 1.12539 6.43121 0.598494 5.77085 0.0729871 4.83244-0.189766 3.61599-0.189766 3.20865-0.189766 2.7888-0.14945 2.35644-0.0688164 1.92408 0.011817 1.47781 0.132767 1.01765 0.294034L1.01765 1.56401C1.38189 1.3513 1.78089 1.19073 2.21464 1.08229 2.64978 0.973856 3.10438 0.919637 3.57845 0.919637 4.40286 0.919637 5.03124 1.08229 5.46361 1.40761 5.89597 1.73292 6.11215 2.2063 6.11215 2.82773 6.11215 3.40189 5.91126 3.85024 5.50948 4.17278 5.10771 4.4967 4.54883 4.65866 3.83287 4.65866L2.69844 4.65866 2.69844 5.74096 3.885 5.74096C4.53146 5.74096 5.02638 5.87025 5.36976 6.12883 5.71315 6.38741 5.88485 6.76 5.88485 7.24658 5.88485 7.74567 5.70759 8.12868 5.35308 8.3956 4.99996 8.66392 4.49322 8.79807 3.83287 8.79807 3.47141 8.79807 3.08423 8.75845 2.67133 8.67921 2.25843 8.60135 1.80452 8.48041 1.3096 8.31636L1.3096 9.48832C1.81008 9.62735 2.27859 9.73161 2.71512 9.80112 3.15165 9.87064 3.56316 9.90539 3.94964 9.90539 4.94922 9.90539 5.73957 9.67809 6.32068 9.22348 6.90319 8.77027 7.19444 8.15718 7.19444 7.38421 7.19444 6.8448 7.04013 6.3895 6.7315 6.01831 6.42286 5.64712 5.98425 5.38992 5.41564 5.24673Z" fill="#262626" transform="matrix(1.00216 0 0 -1 1011.55 447.17)"/><path d="M0.652713 4.18946 4.16443 4.18946 4.16443 3.12176 0.652713 3.12176 0.652713 4.18946Z" fill="#262626" transform="matrix(1.00216 0 0 -1 1034.94 447.17)"/><path d="M4.24159 8.86272C3.56455 8.86272 3.05503 8.52906 2.71303 7.86175 2.37243 7.19583 2.20212 6.19348 2.20212 4.85468 2.20212 3.52145 2.37243 2.52118 2.71303 1.85387 3.05503 1.18656 3.56455 0.852906 4.24159 0.852906 4.9242 0.852906 5.4358 1.18656 5.77641 1.85387 6.1184 2.52118 6.2894 3.52145 6.2894 4.85468 6.2894 6.19348 6.1184 7.19583 5.77641 7.86175 5.4358 8.52906 4.9242 8.86272 4.24159 8.86272ZM4.24159 9.90539C5.33292 9.90539 6.16637 9.47373 6.74192 8.61039 7.31748 7.74845 7.60526 6.49655 7.60526 4.85468 7.60526 3.21699 7.31748 1.96648 6.74192 1.10315 6.16637 0.241205 5.33292-0.189766 4.24159-0.189766 3.15165-0.189766 2.3189 0.241205 1.74335 1.10315 1.16779 1.96648 0.880016 3.21699 0.880016 4.85468 0.880016 6.49655 1.16779 7.74845 1.74335 8.61039 2.3189 9.47373 3.15165 9.90539 4.24159 9.90539Z" fill="#262626" transform="matrix(1.00216 0 0 -1 1039.77 447.17)"/><path d="M1.42638 1.65576 2.8027 1.65576 2.8027 0 1.42638 0 1.42638 1.65576Z" fill="#262626" transform="matrix(1.00216 0 0 -1 1048.28 447.17)"/><path d="M5.04445 8.58328 1.72041 3.38869 5.04445 3.38869 5.04445 8.58328ZM4.69828 9.73022 6.35405 9.73022 6.35405 3.38869 7.74289 3.38869 7.74289 2.29388 6.35405 2.29388 6.35405 0 5.04445 0 5.04445 2.29388 0.652713 2.29388 0.652713 3.56386 4.69828 9.73022Z" fill="#262626" transform="matrix(1.00216 0 0 -1 1052.53 447.17)"/><path d="M4.24159 4.62113C3.61599 4.62113 3.12385 4.4536 2.76517 4.11856 2.40788 3.78351 2.22923 3.32335 2.22923 2.73806 2.22923 2.15138 2.40788 1.69052 2.76517 1.35547 3.12385 1.02043 3.61599 0.852906 4.24159 0.852906 4.8672 0.852906 5.36003 1.02112 5.7201 1.35756 6.08156 1.69539 6.26229 2.15555 6.26229 2.73806 6.26229 3.32335 6.08295 3.78351 5.72427 4.11856 5.36698 4.4536 4.87276 4.62113 4.24159 4.62113ZM2.92574 5.18C2.36131 5.31902 1.9213 5.58178 1.60572 5.96826 1.29152 6.35613 1.13443 6.82812 1.13443 7.38421 1.13443 8.16135 1.41108 8.77583 1.9644 9.22765 2.5191 9.67948 3.27816 9.90539 4.24159 9.90539 5.21058 9.90539 5.97104 9.67948 6.52296 9.22765 7.07488 8.77583 7.35084 8.16135 7.35084 7.38421 7.35084 6.82812 7.19305 6.35613 6.87747 5.96826 6.56328 5.58178 6.12605 5.31902 5.56579 5.18 6.19973 5.03263 6.69326 4.74347 7.04638 4.31249 7.40089 3.88291 7.57815 3.3581 7.57815 2.73806 7.57815 1.79409 7.29037 1.06978 6.71481 0.565129 6.13926 0.0618653 5.31485-0.189766 4.24159-0.189766 3.16973-0.189766 2.34532 0.0618653 1.76837 0.565129 1.19282 1.06978 0.90504 1.79409 0.90504 2.73806 0.90504 3.3581 1.08299 3.88291 1.43889 4.31249 1.79618 4.74347 2.29179 5.03263 2.92574 5.18ZM2.44403 7.25909C2.44403 6.75582 2.60112 6.36308 2.91531 6.08087 3.2309 5.79865 3.67299 5.65754 4.24159 5.65754 4.80742 5.65754 5.24951 5.79865 5.56787 6.08087 5.88763 6.36308 6.0475 6.75582 6.0475 7.25909 6.0475 7.76374 5.88763 8.15718 5.56787 8.43939 5.24951 8.72161 4.80742 8.86272 4.24159 8.86272 3.67299 8.86272 3.2309 8.72161 2.91531 8.43939 2.60112 8.15718 2.44403 7.76374 2.44403 7.25909Z" fill="#262626" transform="matrix(1.00216 0 0 -1 1061.04 447.17)"/><path d="M4.50852 19.4604 16.8121 19.4604 16.3825 17.2416 6.69813 17.2416 5.58038 11.4819 14.8727 11.4819 14.4431 9.26728 5.14663 9.26728 3.79116 2.21464 13.6965 2.21464 13.267 0 0.717359 0 4.50852 19.4604Z" transform="matrix(1.00216 0 0 -1 966.778 218.712)"/><path d="M11.2663 13.1756 10.913 11.3772C10.298 11.7062 9.68782 11.9543 9.08251 12.1217 8.47721 12.2891 7.89136 12.3728 7.32498 12.3728 6.22531 12.3728 5.34947 12.1324 4.69745 11.6517 4.04738 11.1709 3.72234 10.5316 3.72234 9.73356 3.72234 9.29564 3.84204 8.9599 4.08144 8.72634 4.32278 8.49278 4.94171 8.2417 5.93823 7.97311L7.04471 7.7016C8.29036 7.37851 9.15647 6.96881 9.64305 6.4725 10.1296 5.97813 10.3729 5.28329 10.3729 4.38798 10.3729 3.01388 9.83282 1.89474 8.75261 1.03058 7.67435 0.166411 6.25353-0.265673 4.49017-0.265673 3.76613-0.265673 3.03918-0.193659 2.30931-0.0496312 1.57944 0.0924503 0.84665 0.309465 0.11094 0.601414L0.484634 2.49908C1.16001 2.08062 1.83636 1.76434 2.51368 1.55025 3.191 1.3381 3.86734 1.23202 4.54272 1.23202 5.69299 1.23202 6.61458 1.48699 7.30747 1.99693 8.00036 2.50881 8.3468 3.17543 8.3468 3.99677 8.3468 4.54369 8.20862 4.95826 7.93224 5.24047 7.65586 5.52464 7.06126 5.78155 6.14843 6.01122L5.04487 6.29441C3.7856 6.62334 2.9263 7.00189 2.46696 7.43009 2.00763 7.86022 1.77797 8.46164 1.77797 9.23433 1.77797 10.589 2.29958 11.6993 3.34281 12.5655 4.38604 13.4335 5.74457 13.8675 7.41841 13.8675 8.06848 13.8675 8.71271 13.8092 9.35111 13.6924 9.9895 13.5775 10.6279 13.4053 11.2663 13.1756Z" transform="matrix(1.00216 0 0 -1 983.68 223.091)"/><path d="M373.41 296.286 561.325 296.286 561.325 61.3926 373.41 61.3926Z" fill="#FFFFFF" transform="matrix(1.00216 0 0 1 808 170.691)"/><g><path d="M373.41 61.3926 420.389 61.3926 420.389 108.371 373.41 108.371 373.41 61.3926" fill="#D6604D" transform="matrix(1.00216 0 0 1 808 170.691)"/></g><g><path d="M420.389 61.3926 467.367 61.3926 467.367 108.371 420.389 108.371 420.389 61.3926" fill="#6BACD1" transform="matrix(1.00216 0 0 1 808 170.691)"/></g><g><path d="M467.367 61.3926 514.346 61.3926 514.346 108.371 467.367 108.371 467.367 61.3926" fill="#C0DCEB" transform="matrix(1.00216 0 0 1 808 170.691)"/></g><g><path d="M514.346 61.3926 561.325 61.3926 561.325 108.371 514.346 108.371 514.346 61.3926" fill="#AED3E6" transform="matrix(1.00216 0 0 1 808 170.691)"/></g><g><path d="M373.41 108.371 420.389 108.371 420.389 155.35 373.41 155.35 373.41 108.371" fill="#F7F6F6" transform="matrix(1.00216 0 0 1 808 170.691)"/></g><g><path d="M420.389 108.371 467.367 108.371 467.367 155.35 420.389 155.35 420.389 108.371" fill="#F7F6F6" transform="matrix(1.00216 0 0 1 808 170.691)"/></g><g><path d="M467.367 108.371 514.346 108.371 514.346 155.35 467.367 155.35 467.367 108.371" fill="#F7F6F6" transform="matrix(1.00216 0 0 1 808 170.691)"/></g><g><path d="M514.346 108.371 561.325 108.371 561.325 155.35 514.346 155.35 514.346 108.371" fill="#F7F6F6" transform="matrix(1.00216 0 0 1 808 170.691)"/></g><g><path d="M373.41 155.35 420.389 155.35 420.389 202.329 373.41 202.329 373.41 155.35" fill="#F7F6F6" transform="matrix(1.00216 0 0 1 808 170.691)"/></g><g><path d="M420.389 155.35 467.367 155.35 467.367 202.329 420.389 202.329 420.389 155.35" fill="#F7F6F6" transform="matrix(1.00216 0 0 1 808 170.691)"/></g><g><path d="M467.367 155.35 514.346 155.35 514.346 202.329 467.367 202.329 467.367 155.35" fill="#F7F6F6" transform="matrix(1.00216 0 0 1 808 170.691)"/></g><g><path d="M514.346 155.35 561.325 155.35 561.325 202.329 514.346 202.329 514.346 155.35" fill="#F7F6F6" transform="matrix(1.00216 0 0 1 808 170.691)"/></g><g><path d="M373.41 202.329 420.389 202.329 420.389 249.307 373.41 249.307 373.41 202.329" fill="#F9EBE3" transform="matrix(1.00216 0 0 1 808 170.691)"/></g><g><path d="M420.389 202.329 467.367 202.329 467.367 249.307 420.389 249.307 420.389 202.329" fill="#FBE5D8" transform="matrix(1.00216 0 0 1 808 170.691)"/></g><g><path d="M467.367 202.329 514.346 202.329 514.346 249.307 467.367 249.307 467.367 202.329" fill="#F9EDE5" transform="matrix(1.00216 0 0 1 808 170.691)"/></g><g><path d="M514.346 202.329 561.325 202.329 561.325 249.307 514.346 249.307 514.346 202.329" fill="#ECF2F5" transform="matrix(1.00216 0 0 1 808 170.691)"/></g><g><path d="M373.41 249.307 420.389 249.307 420.389 296.286 373.41 296.286 373.41 249.307" fill="#F7F6F6" transform="matrix(1.00216 0 0 1 808 170.691)"/></g><g><path d="M420.389 249.307 467.367 249.307 467.367 296.286 420.389 296.286 420.389 249.307" fill="#F7F6F6" transform="matrix(1.00216 0 0 1 808 170.691)"/></g><g><path d="M467.367 249.307 514.346 249.307 514.346 296.286 467.367 296.286 467.367 249.307" fill="#F9EFE9" transform="matrix(1.00216 0 0 1 808 170.691)"/></g><g><path d="M514.346 249.307 561.325 249.307 561.325 296.286 514.346 296.286 514.346 249.307" fill="#F7F6F6" transform="matrix(1.00216 0 0 1 808 170.691)"/></g><path d="M1.65576 1.10732 3.80576 1.10732 3.80576 8.53115 1.466 8.06195 1.466 9.26102 3.79324 9.73022 5.1091 9.73022 5.1091 1.10732 7.25909 1.10732 7.25909 0 1.65576 0 1.65576 1.10732Z" fill="#FFFFFF" transform="matrix(1.00216 0 0 -1 1195.12 259.256)"/><path d="M1.42638 1.65576 2.8027 1.65576 2.8027 0 1.42638 0 1.42638 1.65576Z" fill="#FFFFFF" transform="matrix(1.00216 0 0 -1 1203.63 259.256)"/><path d="M2.5608 1.10732 7.15482 1.10732 7.15482 0 0.978027 0 0.978027 1.10732C1.47712 1.62448 2.15764 2.31821 3.01958 3.18849 3.88291 4.06017 4.4251 4.62252 4.64615 4.87554 5.06739 5.34822 5.36142 5.7486 5.52825 6.0767 5.69647 6.40479 5.78058 6.72732 5.78058 7.0443 5.78058 7.56146 5.59915 7.9827 5.2363 8.30802 4.87345 8.63472 4.40077 8.79807 3.81827 8.79807 3.40537 8.79807 2.96953 8.72648 2.51076 8.58328 2.05337 8.44009 1.56401 8.22252 1.04267 7.93057L1.04267 9.26102C1.57235 9.47373 2.06727 9.6343 2.52744 9.74273 2.989 9.85117 3.41093 9.90539 3.79324 9.90539 4.80116 9.90539 5.60471 9.65306 6.2039 9.14841 6.80309 8.64515 7.10269 7.97228 7.10269 7.1298 7.10269 6.72941 7.02761 6.34988 6.87747 5.9912 6.72872 5.63391 6.45623 5.21197 6.06001 4.72539 5.95158 4.59888 5.6061 4.23464 5.0236 3.63267 4.44248 3.0307 3.62155 2.18892 2.5608 1.10732Z" fill="#FFFFFF" transform="matrix(1.00216 0 0 -1 1207.88 259.256)"/><path d="M0.652713 4.18946 4.16443 4.18946 4.16443 3.12176 0.652713 3.12176 0.652713 4.18946Z" fill="#FFFFFF" transform="matrix(1.00216 0 0 -1 1235.53 259.256)"/><path d="M4.24159 8.86272C3.56455 8.86272 3.05503 8.52906 2.71303 7.86175 2.37243 7.19583 2.20212 6.19348 2.20212 4.85468 2.20212 3.52145 2.37243 2.52118 2.71303 1.85387 3.05503 1.18656 3.56455 0.852906 4.24159 0.852906 4.9242 0.852906 5.4358 1.18656 5.77641 1.85387 6.1184 2.52118 6.2894 3.52145 6.2894 4.85468 6.2894 6.19348 6.1184 7.19583 5.77641 7.86175 5.4358 8.52906 4.9242 8.86272 4.24159 8.86272ZM4.24159 9.90539C5.33292 9.90539 6.16637 9.47373 6.74192 8.61039 7.31748 7.74845 7.60526 6.49655 7.60526 4.85468 7.60526 3.21699 7.31748 1.96648 6.74192 1.10315 6.16637 0.241205 5.33292-0.189766 4.24159-0.189766 3.15165-0.189766 2.3189 0.241205 1.74335 1.10315 1.16779 1.96648 0.880016 3.21699 0.880016 4.85468 0.880016 6.49655 1.16779 7.74845 1.74335 8.61039 2.3189 9.47373 3.15165 9.90539 4.24159 9.90539Z" fill="#FFFFFF" transform="matrix(1.00216 0 0 -1 1240.36 259.256)"/><path d="M1.42638 1.65576 2.8027 1.65576 2.8027 0 1.42638 0 1.42638 1.65576Z" fill="#FFFFFF" transform="matrix(1.00216 0 0 -1 1248.87 259.256)"/><path d="M1.466 0.202279 1.466 1.40135C1.79687 1.24426 2.13122 1.1247 2.46905 1.04267 2.80827 0.960649 3.14123 0.919637 3.46793 0.919637 4.33682 0.919637 4.99996 1.21159 5.45735 1.79548 5.91613 2.37938 6.17818 3.26704 6.24352 4.45847 5.99189 4.0845 5.67214 3.79741 5.28427 3.59722 4.89778 3.39703 4.47029 3.29693 4.00178 3.29693 3.02862 3.29693 2.25843 3.59097 1.69122 4.17903 1.124 4.76849 0.840394 5.57413 0.840394 6.59595 0.840394 7.59413 1.13582 8.39491 1.72667 8.99827 2.31751 9.60302 3.10369 9.90539 4.08519 9.90539 5.21128 9.90539 6.07044 9.47373 6.66268 8.61039 7.25631 7.74845 7.55312 6.49655 7.55312 4.85468 7.55312 3.32126 7.18888 2.09716 6.4604 1.18239 5.73331 0.267619 4.75528-0.189766 3.52632-0.189766 3.19544-0.189766 2.8604-0.157096 2.52118-0.0917552 2.18336-0.0264144 1.83163 0.0715969 1.466 0.202279ZM4.08519 4.32709C4.67604 4.32709 5.14385 4.52868 5.48863 4.93184 5.8348 5.3364 6.00788 5.8911 6.00788 6.59595 6.00788 7.29523 5.8348 7.84785 5.48863 8.2538 5.14385 8.65974 4.67604 8.86272 4.08519 8.86272 3.49434 8.86272 3.02653 8.65974 2.68175 8.2538 2.33698 7.84785 2.16459 7.29523 2.16459 6.59595 2.16459 5.8911 2.33698 5.3364 2.68175 4.93184 3.02653 4.52868 3.49434 4.32709 4.08519 4.32709Z" fill="#FFFFFF" transform="matrix(1.00216 0 0 -1 1253.12 259.256)"/><path d="M1.466 0.202279 1.466 1.40135C1.79687 1.24426 2.13122 1.1247 2.46905 1.04267 2.80827 0.960649 3.14123 0.919637 3.46793 0.919637 4.33682 0.919637 4.99996 1.21159 5.45735 1.79548 5.91613 2.37938 6.17818 3.26704 6.24352 4.45847 5.99189 4.0845 5.67214 3.79741 5.28427 3.59722 4.89778 3.39703 4.47029 3.29693 4.00178 3.29693 3.02862 3.29693 2.25843 3.59097 1.69122 4.17903 1.124 4.76849 0.840394 5.57413 0.840394 6.59595 0.840394 7.59413 1.13582 8.39491 1.72667 8.99827 2.31751 9.60302 3.10369 9.90539 4.08519 9.90539 5.21128 9.90539 6.07044 9.47373 6.66268 8.61039 7.25631 7.74845 7.55312 6.49655 7.55312 4.85468 7.55312 3.32126 7.18888 2.09716 6.4604 1.18239 5.73331 0.267619 4.75528-0.189766 3.52632-0.189766 3.19544-0.189766 2.8604-0.157096 2.52118-0.0917552 2.18336-0.0264144 1.83163 0.0715969 1.466 0.202279ZM4.08519 4.32709C4.67604 4.32709 5.14385 4.52868 5.48863 4.93184 5.8348 5.3364 6.00788 5.8911 6.00788 6.59595 6.00788 7.29523 5.8348 7.84785 5.48863 8.2538 5.14385 8.65974 4.67604 8.86272 4.08519 8.86272 3.49434 8.86272 3.02653 8.65974 2.68175 8.2538 2.33698 7.84785 2.16459 7.29523 2.16459 6.59595 2.16459 5.8911 2.33698 5.3364 2.68175 4.93184 3.02653 4.52868 3.49434 4.32709 4.08519 4.32709Z" fill="#FFFFFF" transform="matrix(1.00216 0 0 -1 1261.63 259.256)"/><path d="M0.652713 4.18946 4.16443 4.18946 4.16443 3.12176 0.652713 3.12176 0.652713 4.18946Z" fill="#262626" transform="matrix(1.00216 0 0 -1 1282.61 259.256)"/><path d="M4.24159 8.86272C3.56455 8.86272 3.05503 8.52906 2.71303 7.86175 2.37243 7.19583 2.20212 6.19348 2.20212 4.85468 2.20212 3.52145 2.37243 2.52118 2.71303 1.85387 3.05503 1.18656 3.56455 0.852906 4.24159 0.852906 4.9242 0.852906 5.4358 1.18656 5.77641 1.85387 6.1184 2.52118 6.2894 3.52145 6.2894 4.85468 6.2894 6.19348 6.1184 7.19583 5.77641 7.86175 5.4358 8.52906 4.9242 8.86272 4.24159 8.86272ZM4.24159 9.90539C5.33292 9.90539 6.16637 9.47373 6.74192 8.61039 7.31748 7.74845 7.60526 6.49655 7.60526 4.85468 7.60526 3.21699 7.31748 1.96648 6.74192 1.10315 6.16637 0.241205 5.33292-0.189766 4.24159-0.189766 3.15165-0.189766 2.3189 0.241205 1.74335 1.10315 1.16779 1.96648 0.880016 3.21699 0.880016 4.85468 0.880016 6.49655 1.16779 7.74845 1.74335 8.61039 2.3189 9.47373 3.15165 9.90539 4.24159 9.90539Z" fill="#262626" transform="matrix(1.00216 0 0 -1 1287.44 259.256)"/><path d="M1.42638 1.65576 2.8027 1.65576 2.8027 0 1.42638 0 1.42638 1.65576Z" fill="#262626" transform="matrix(1.00216 0 0 -1 1295.95 259.256)"/><path d="M1.44097 9.73022 6.60846 9.73022 6.60846 8.62082 2.6463 8.62082 2.6463 6.23727C2.83677 6.30261 3.02723 6.35127 3.21769 6.38324 3.40954 6.41522 3.60139 6.43121 3.79324 6.43121 4.87901 6.43121 5.73887 6.1337 6.37282 5.53868 7.00815 4.94366 7.32582 4.13802 7.32582 3.12176 7.32582 2.07492 6.99981 1.26094 6.34779 0.679823 5.69577 0.100097 4.77683-0.189766 3.59097-0.189766 3.18224-0.189766 2.76586-0.155011 2.34184-0.0854992 1.91921-0.0159876 1.48199 0.0882796 1.03016 0.227303L1.03016 1.5515C1.42082 1.33879 1.82468 1.18031 2.24175 1.07604 2.65882 0.971771 3.09952 0.919637 3.56386 0.919637 4.31597 0.919637 4.91099 1.11705 5.34891 1.51188 5.78822 1.9067 6.00788 2.44333 6.00788 3.12176 6.00788 3.7988 5.78822 4.33474 5.34891 4.72956 4.91099 5.12578 4.31597 5.32389 3.56386 5.32389 3.21213 5.32389 2.86109 5.28496 2.51076 5.20711 2.16181 5.12926 1.80521 5.00761 1.44097 4.84217L1.44097 9.73022Z" fill="#262626" transform="matrix(1.00216 0 0 -1 1300.2 259.256)"/><path d="M1.65576 1.10732 3.80576 1.10732 3.80576 8.53115 1.466 8.06195 1.466 9.26102 3.79324 9.73022 5.1091 9.73022 5.1091 1.10732 7.25909 1.10732 7.25909 0 1.65576 0 1.65576 1.10732Z" fill="#262626" transform="matrix(1.00216 0 0 -1 1308.71 259.256)"/><path d="M0.652713 4.18946 4.16443 4.18946 4.16443 3.12176 0.652713 3.12176 0.652713 4.18946Z" fill="#262626" transform="matrix(1.00216 0 0 -1 1329.69 259.256)"/><path d="M4.24159 8.86272C3.56455 8.86272 3.05503 8.52906 2.71303 7.86175 2.37243 7.19583 2.20212 6.19348 2.20212 4.85468 2.20212 3.52145 2.37243 2.52118 2.71303 1.85387 3.05503 1.18656 3.56455 0.852906 4.24159 0.852906 4.9242 0.852906 5.4358 1.18656 5.77641 1.85387 6.1184 2.52118 6.2894 3.52145 6.2894 4.85468 6.2894 6.19348 6.1184 7.19583 5.77641 7.86175 5.4358 8.52906 4.9242 8.86272 4.24159 8.86272ZM4.24159 9.90539C5.33292 9.90539 6.16637 9.47373 6.74192 8.61039 7.31748 7.74845 7.60526 6.49655 7.60526 4.85468 7.60526 3.21699 7.31748 1.96648 6.74192 1.10315 6.16637 0.241205 5.33292-0.189766 4.24159-0.189766 3.15165-0.189766 2.3189 0.241205 1.74335 1.10315 1.16779 1.96648 0.880016 3.21699 0.880016 4.85468 0.880016 6.49655 1.16779 7.74845 1.74335 8.61039 2.3189 9.47373 3.15165 9.90539 4.24159 9.90539Z" fill="#262626" transform="matrix(1.00216 0 0 -1 1334.52 259.256)"/><path d="M1.42638 1.65576 2.8027 1.65576 2.8027 0 1.42638 0 1.42638 1.65576Z" fill="#262626" transform="matrix(1.00216 0 0 -1 1343.03 259.256)"/><path d="M4.40634 5.38853C3.81549 5.38853 3.34698 5.18625 3.00081 4.7817 2.65603 4.37853 2.48365 3.82522 2.48365 3.12176 2.48365 2.42248 2.65603 1.86916 3.00081 1.46183 3.34698 1.05588 3.81549 0.852906 4.40634 0.852906 4.99718 0.852906 5.465 1.05588 5.80977 1.46183 6.15455 1.86916 6.32694 2.42248 6.32694 3.12176 6.32694 3.82522 6.15455 4.37853 5.80977 4.7817 5.465 5.18625 4.99718 5.38853 4.40634 5.38853ZM7.01927 9.51543 7.01927 8.31636C6.6884 8.47206 6.35474 8.59093 6.01831 8.67295 5.68187 8.75637 5.34822 8.79807 5.01734 8.79807 4.14845 8.79807 3.48461 8.50473 3.02584 7.91806 2.56845 7.33138 2.30709 6.44511 2.24175 5.25924 2.49755 5.63738 2.81869 5.92725 3.20518 6.12883 3.59305 6.33041 4.01916 6.43121 4.48349 6.43121 5.46082 6.43121 6.2331 6.13439 6.80031 5.54076 7.36753 4.94852 7.65113 4.14219 7.65113 3.12176 7.65113 2.12219 7.35571 1.32002 6.76486 0.715273 6.17401 0.111914 5.38784-0.189766 4.40634-0.189766 3.28025-0.189766 2.4197 0.241205 1.82468 1.10315 1.22966 1.96648 0.932149 3.21699 0.932149 4.85468 0.932149 6.39228 1.29708 7.61846 2.02696 8.53323 2.75683 9.44801 3.73624 9.90539 4.96521 9.90539 5.29608 9.90539 5.62974 9.87272 5.96617 9.80738 6.30261 9.74204 6.65364 9.64472 7.01927 9.51543Z" fill="#262626" transform="matrix(1.00216 0 0 -1 1347.28 259.256)"/><path d="M2.5608 1.10732 7.15482 1.10732 7.15482 0 0.978027 0 0.978027 1.10732C1.47712 1.62448 2.15764 2.31821 3.01958 3.18849 3.88291 4.06017 4.4251 4.62252 4.64615 4.87554 5.06739 5.34822 5.36142 5.7486 5.52825 6.0767 5.69647 6.40479 5.78058 6.72732 5.78058 7.0443 5.78058 7.56146 5.59915 7.9827 5.2363 8.30802 4.87345 8.63472 4.40077 8.79807 3.81827 8.79807 3.40537 8.79807 2.96953 8.72648 2.51076 8.58328 2.05337 8.44009 1.56401 8.22252 1.04267 7.93057L1.04267 9.26102C1.57235 9.47373 2.06727 9.6343 2.52744 9.74273 2.989 9.85117 3.41093 9.90539 3.79324 9.90539 4.80116 9.90539 5.60471 9.65306 6.2039 9.14841 6.80309 8.64515 7.10269 7.97228 7.10269 7.1298 7.10269 6.72941 7.02761 6.34988 6.87747 5.9912 6.72872 5.63391 6.45623 5.21197 6.06001 4.72539 5.95158 4.59888 5.6061 4.23464 5.0236 3.63267 4.44248 3.0307 3.62155 2.18892 2.5608 1.10732Z" fill="#262626" transform="matrix(1.00216 0 0 -1 1355.79 259.256)"/><path d="M4.24159 8.86272C3.56455 8.86272 3.05503 8.52906 2.71303 7.86175 2.37243 7.19583 2.20212 6.19348 2.20212 4.85468 2.20212 3.52145 2.37243 2.52118 2.71303 1.85387 3.05503 1.18656 3.56455 0.852906 4.24159 0.852906 4.9242 0.852906 5.4358 1.18656 5.77641 1.85387 6.1184 2.52118 6.2894 3.52145 6.2894 4.85468 6.2894 6.19348 6.1184 7.19583 5.77641 7.86175 5.4358 8.52906 4.9242 8.86272 4.24159 8.86272ZM4.24159 9.90539C5.33292 9.90539 6.16637 9.47373 6.74192 8.61039 7.31748 7.74845 7.60526 6.49655 7.60526 4.85468 7.60526 3.21699 7.31748 1.96648 6.74192 1.10315 6.16637 0.241205 5.33292-0.189766 4.24159-0.189766 3.15165-0.189766 2.3189 0.241205 1.74335 1.10315 1.16779 1.96648 0.880016 3.21699 0.880016 4.85468 0.880016 6.49655 1.16779 7.74845 1.74335 8.61039 2.3189 9.47373 3.15165 9.90539 4.24159 9.90539Z" fill="#262626" transform="matrix(1.00216 0 0 -1 1201.5 306.234)"/><path d="M4.24159 8.86272C3.56455 8.86272 3.05503 8.52906 2.71303 7.86175 2.37243 7.19583 2.20212 6.19348 2.20212 4.85468 2.20212 3.52145 2.37243 2.52118 2.71303 1.85387 3.05503 1.18656 3.56455 0.852906 4.24159 0.852906 4.9242 0.852906 5.4358 1.18656 5.77641 1.85387 6.1184 2.52118 6.2894 3.52145 6.2894 4.85468 6.2894 6.19348 6.1184 7.19583 5.77641 7.86175 5.4358 8.52906 4.9242 8.86272 4.24159 8.86272ZM4.24159 9.90539C5.33292 9.90539 6.16637 9.47373 6.74192 8.61039 7.31748 7.74845 7.60526 6.49655 7.60526 4.85468 7.60526 3.21699 7.31748 1.96648 6.74192 1.10315 6.16637 0.241205 5.33292-0.189766 4.24159-0.189766 3.15165-0.189766 2.3189 0.241205 1.74335 1.10315 1.16779 1.96648 0.880016 3.21699 0.880016 4.85468 0.880016 6.49655 1.16779 7.74845 1.74335 8.61039 2.3189 9.47373 3.15165 9.90539 4.24159 9.90539Z" fill="#262626" transform="matrix(1.00216 0 0 -1 1248.58 306.234)"/><path d="M4.24159 8.86272C3.56455 8.86272 3.05503 8.52906 2.71303 7.86175 2.37243 7.19583 2.20212 6.19348 2.20212 4.85468 2.20212 3.52145 2.37243 2.52118 2.71303 1.85387 3.05503 1.18656 3.56455 0.852906 4.24159 0.852906 4.9242 0.852906 5.4358 1.18656 5.77641 1.85387 6.1184 2.52118 6.2894 3.52145 6.2894 4.85468 6.2894 6.19348 6.1184 7.19583 5.77641 7.86175 5.4358 8.52906 4.9242 8.86272 4.24159 8.86272ZM4.24159 9.90539C5.33292 9.90539 6.16637 9.47373 6.74192 8.61039 7.31748 7.74845 7.60526 6.49655 7.60526 4.85468 7.60526 3.21699 7.31748 1.96648 6.74192 1.10315 6.16637 0.241205 5.33292-0.189766 4.24159-0.189766 3.15165-0.189766 2.3189 0.241205 1.74335 1.10315 1.16779 1.96648 0.880016 3.21699 0.880016 4.85468 0.880016 6.49655 1.16779 7.74845 1.74335 8.61039 2.3189 9.47373 3.15165 9.90539 4.24159 9.90539Z" fill="#262626" transform="matrix(1.00216 0 0 -1 1295.66 306.234)"/><path d="M4.24159 8.86272C3.56455 8.86272 3.05503 8.52906 2.71303 7.86175 2.37243 7.19583 2.20212 6.19348 2.20212 4.85468 2.20212 3.52145 2.37243 2.52118 2.71303 1.85387 3.05503 1.18656 3.56455 0.852906 4.24159 0.852906 4.9242 0.852906 5.4358 1.18656 5.77641 1.85387 6.1184 2.52118 6.2894 3.52145 6.2894 4.85468 6.2894 6.19348 6.1184 7.19583 5.77641 7.86175 5.4358 8.52906 4.9242 8.86272 4.24159 8.86272ZM4.24159 9.90539C5.33292 9.90539 6.16637 9.47373 6.74192 8.61039 7.31748 7.74845 7.60526 6.49655 7.60526 4.85468 7.60526 3.21699 7.31748 1.96648 6.74192 1.10315 6.16637 0.241205 5.33292-0.189766 4.24159-0.189766 3.15165-0.189766 2.3189 0.241205 1.74335 1.10315 1.16779 1.96648 0.880016 3.21699 0.880016 4.85468 0.880016 6.49655 1.16779 7.74845 1.74335 8.61039 2.3189 9.47373 3.15165 9.90539 4.24159 9.90539Z" fill="#262626" transform="matrix(1.00216 0 0 -1 1342.74 306.234)"/><path d="M4.24159 8.86272C3.56455 8.86272 3.05503 8.52906 2.71303 7.86175 2.37243 7.19583 2.20212 6.19348 2.20212 4.85468 2.20212 3.52145 2.37243 2.52118 2.71303 1.85387 3.05503 1.18656 3.56455 0.852906 4.24159 0.852906 4.9242 0.852906 5.4358 1.18656 5.77641 1.85387 6.1184 2.52118 6.2894 3.52145 6.2894 4.85468 6.2894 6.19348 6.1184 7.19583 5.77641 7.86175 5.4358 8.52906 4.9242 8.86272 4.24159 8.86272ZM4.24159 9.90539C5.33292 9.90539 6.16637 9.47373 6.74192 8.61039 7.31748 7.74845 7.60526 6.49655 7.60526 4.85468 7.60526 3.21699 7.31748 1.96648 6.74192 1.10315 6.16637 0.241205 5.33292-0.189766 4.24159-0.189766 3.15165-0.189766 2.3189 0.241205 1.74335 1.10315 1.16779 1.96648 0.880016 3.21699 0.880016 4.85468 0.880016 6.49655 1.16779 7.74845 1.74335 8.61039 2.3189 9.47373 3.15165 9.90539 4.24159 9.90539Z" fill="#262626" transform="matrix(1.00216 0 0 -1 1201.5 353.213)"/><path d="M4.24159 8.86272C3.56455 8.86272 3.05503 8.52906 2.71303 7.86175 2.37243 7.19583 2.20212 6.19348 2.20212 4.85468 2.20212 3.52145 2.37243 2.52118 2.71303 1.85387 3.05503 1.18656 3.56455 0.852906 4.24159 0.852906 4.9242 0.852906 5.4358 1.18656 5.77641 1.85387 6.1184 2.52118 6.2894 3.52145 6.2894 4.85468 6.2894 6.19348 6.1184 7.19583 5.77641 7.86175 5.4358 8.52906 4.9242 8.86272 4.24159 8.86272ZM4.24159 9.90539C5.33292 9.90539 6.16637 9.47373 6.74192 8.61039 7.31748 7.74845 7.60526 6.49655 7.60526 4.85468 7.60526 3.21699 7.31748 1.96648 6.74192 1.10315 6.16637 0.241205 5.33292-0.189766 4.24159-0.189766 3.15165-0.189766 2.3189 0.241205 1.74335 1.10315 1.16779 1.96648 0.880016 3.21699 0.880016 4.85468 0.880016 6.49655 1.16779 7.74845 1.74335 8.61039 2.3189 9.47373 3.15165 9.90539 4.24159 9.90539Z" fill="#262626" transform="matrix(1.00216 0 0 -1 1248.58 353.213)"/><path d="M4.24159 8.86272C3.56455 8.86272 3.05503 8.52906 2.71303 7.86175 2.37243 7.19583 2.20212 6.19348 2.20212 4.85468 2.20212 3.52145 2.37243 2.52118 2.71303 1.85387 3.05503 1.18656 3.56455 0.852906 4.24159 0.852906 4.9242 0.852906 5.4358 1.18656 5.77641 1.85387 6.1184 2.52118 6.2894 3.52145 6.2894 4.85468 6.2894 6.19348 6.1184 7.19583 5.77641 7.86175 5.4358 8.52906 4.9242 8.86272 4.24159 8.86272ZM4.24159 9.90539C5.33292 9.90539 6.16637 9.47373 6.74192 8.61039 7.31748 7.74845 7.60526 6.49655 7.60526 4.85468 7.60526 3.21699 7.31748 1.96648 6.74192 1.10315 6.16637 0.241205 5.33292-0.189766 4.24159-0.189766 3.15165-0.189766 2.3189 0.241205 1.74335 1.10315 1.16779 1.96648 0.880016 3.21699 0.880016 4.85468 0.880016 6.49655 1.16779 7.74845 1.74335 8.61039 2.3189 9.47373 3.15165 9.90539 4.24159 9.90539Z" fill="#262626" transform="matrix(1.00216 0 0 -1 1295.66 353.213)"/><path d="M4.24159 8.86272C3.56455 8.86272 3.05503 8.52906 2.71303 7.86175 2.37243 7.19583 2.20212 6.19348 2.20212 4.85468 2.20212 3.52145 2.37243 2.52118 2.71303 1.85387 3.05503 1.18656 3.56455 0.852906 4.24159 0.852906 4.9242 0.852906 5.4358 1.18656 5.77641 1.85387 6.1184 2.52118 6.2894 3.52145 6.2894 4.85468 6.2894 6.19348 6.1184 7.19583 5.77641 7.86175 5.4358 8.52906 4.9242 8.86272 4.24159 8.86272ZM4.24159 9.90539C5.33292 9.90539 6.16637 9.47373 6.74192 8.61039 7.31748 7.74845 7.60526 6.49655 7.60526 4.85468 7.60526 3.21699 7.31748 1.96648 6.74192 1.10315 6.16637 0.241205 5.33292-0.189766 4.24159-0.189766 3.15165-0.189766 2.3189 0.241205 1.74335 1.10315 1.16779 1.96648 0.880016 3.21699 0.880016 4.85468 0.880016 6.49655 1.16779 7.74845 1.74335 8.61039 2.3189 9.47373 3.15165 9.90539 4.24159 9.90539Z" fill="#262626" transform="matrix(1.00216 0 0 -1 1342.74 353.213)"/><path d="M4.24159 8.86272C3.56455 8.86272 3.05503 8.52906 2.71303 7.86175 2.37243 7.19583 2.20212 6.19348 2.20212 4.85468 2.20212 3.52145 2.37243 2.52118 2.71303 1.85387 3.05503 1.18656 3.56455 0.852906 4.24159 0.852906 4.9242 0.852906 5.4358 1.18656 5.77641 1.85387 6.1184 2.52118 6.2894 3.52145 6.2894 4.85468 6.2894 6.19348 6.1184 7.19583 5.77641 7.86175 5.4358 8.52906 4.9242 8.86272 4.24159 8.86272ZM4.24159 9.90539C5.33292 9.90539 6.16637 9.47373 6.74192 8.61039 7.31748 7.74845 7.60526 6.49655 7.60526 4.85468 7.60526 3.21699 7.31748 1.96648 6.74192 1.10315 6.16637 0.241205 5.33292-0.189766 4.24159-0.189766 3.15165-0.189766 2.3189 0.241205 1.74335 1.10315 1.16779 1.96648 0.880016 3.21699 0.880016 4.85468 0.880016 6.49655 1.16779 7.74845 1.74335 8.61039 2.3189 9.47373 3.15165 9.90539 4.24159 9.90539Z" fill="#262626" transform="matrix(1.00216 0 0 -1 1190.87 400.192)"/><path d="M1.42638 1.65576 2.8027 1.65576 2.8027 0 1.42638 0 1.42638 1.65576Z" fill="#262626" transform="matrix(1.00216 0 0 -1 1199.37 400.192)"/><path d="M1.65576 1.10732 3.80576 1.10732 3.80576 8.53115 1.466 8.06195 1.466 9.26102 3.79324 9.73022 5.1091 9.73022 5.1091 1.10732 7.25909 1.10732 7.25909 0 1.65576 0 1.65576 1.10732Z" fill="#262626" transform="matrix(1.00216 0 0 -1 1203.63 400.192)"/><path d="M4.40634 5.38853C3.81549 5.38853 3.34698 5.18625 3.00081 4.7817 2.65603 4.37853 2.48365 3.82522 2.48365 3.12176 2.48365 2.42248 2.65603 1.86916 3.00081 1.46183 3.34698 1.05588 3.81549 0.852906 4.40634 0.852906 4.99718 0.852906 5.465 1.05588 5.80977 1.46183 6.15455 1.86916 6.32694 2.42248 6.32694 3.12176 6.32694 3.82522 6.15455 4.37853 5.80977 4.7817 5.465 5.18625 4.99718 5.38853 4.40634 5.38853ZM7.01927 9.51543 7.01927 8.31636C6.6884 8.47206 6.35474 8.59093 6.01831 8.67295 5.68187 8.75637 5.34822 8.79807 5.01734 8.79807 4.14845 8.79807 3.48461 8.50473 3.02584 7.91806 2.56845 7.33138 2.30709 6.44511 2.24175 5.25924 2.49755 5.63738 2.81869 5.92725 3.20518 6.12883 3.59305 6.33041 4.01916 6.43121 4.48349 6.43121 5.46082 6.43121 6.2331 6.13439 6.80031 5.54076 7.36753 4.94852 7.65113 4.14219 7.65113 3.12176 7.65113 2.12219 7.35571 1.32002 6.76486 0.715273 6.17401 0.111914 5.38784-0.189766 4.40634-0.189766 3.28025-0.189766 2.4197 0.241205 1.82468 1.10315 1.22966 1.96648 0.932149 3.21699 0.932149 4.85468 0.932149 6.39228 1.29708 7.61846 2.02696 8.53323 2.75683 9.44801 3.73624 9.90539 4.96521 9.90539 5.29608 9.90539 5.62974 9.87272 5.96617 9.80738 6.30261 9.74204 6.65364 9.64472 7.01927 9.51543Z" fill="#262626" transform="matrix(1.00216 0 0 -1 1212.14 400.192)"/><path d="M4.24159 8.86272C3.56455 8.86272 3.05503 8.52906 2.71303 7.86175 2.37243 7.19583 2.20212 6.19348 2.20212 4.85468 2.20212 3.52145 2.37243 2.52118 2.71303 1.85387 3.05503 1.18656 3.56455 0.852906 4.24159 0.852906 4.9242 0.852906 5.4358 1.18656 5.77641 1.85387 6.1184 2.52118 6.2894 3.52145 6.2894 4.85468 6.2894 6.19348 6.1184 7.19583 5.77641 7.86175 5.4358 8.52906 4.9242 8.86272 4.24159 8.86272ZM4.24159 9.90539C5.33292 9.90539 6.16637 9.47373 6.74192 8.61039 7.31748 7.74845 7.60526 6.49655 7.60526 4.85468 7.60526 3.21699 7.31748 1.96648 6.74192 1.10315 6.16637 0.241205 5.33292-0.189766 4.24159-0.189766 3.15165-0.189766 2.3189 0.241205 1.74335 1.10315 1.16779 1.96648 0.880016 3.21699 0.880016 4.85468 0.880016 6.49655 1.16779 7.74845 1.74335 8.61039 2.3189 9.47373 3.15165 9.90539 4.24159 9.90539Z" fill="#262626" transform="matrix(1.00216 0 0 -1 1237.95 400.192)"/><path d="M1.42638 1.65576 2.8027 1.65576 2.8027 0 1.42638 0 1.42638 1.65576Z" fill="#262626" transform="matrix(1.00216 0 0 -1 1246.45 400.192)"/><path d="M2.5608 1.10732 7.15482 1.10732 7.15482 0 0.978027 0 0.978027 1.10732C1.47712 1.62448 2.15764 2.31821 3.01958 3.18849 3.88291 4.06017 4.4251 4.62252 4.64615 4.87554 5.06739 5.34822 5.36142 5.7486 5.52825 6.0767 5.69647 6.40479 5.78058 6.72732 5.78058 7.0443 5.78058 7.56146 5.59915 7.9827 5.2363 8.30802 4.87345 8.63472 4.40077 8.79807 3.81827 8.79807 3.40537 8.79807 2.96953 8.72648 2.51076 8.58328 2.05337 8.44009 1.56401 8.22252 1.04267 7.93057L1.04267 9.26102C1.57235 9.47373 2.06727 9.6343 2.52744 9.74273 2.989 9.85117 3.41093 9.90539 3.79324 9.90539 4.80116 9.90539 5.60471 9.65306 6.2039 9.14841 6.80309 8.64515 7.10269 7.97228 7.10269 7.1298 7.10269 6.72941 7.02761 6.34988 6.87747 5.9912 6.72872 5.63391 6.45623 5.21197 6.06001 4.72539 5.95158 4.59888 5.6061 4.23464 5.0236 3.63267 4.44248 3.0307 3.62155 2.18892 2.5608 1.10732Z" fill="#262626" transform="matrix(1.00216 0 0 -1 1250.71 400.192)"/><path d="M4.40634 5.38853C3.81549 5.38853 3.34698 5.18625 3.00081 4.7817 2.65603 4.37853 2.48365 3.82522 2.48365 3.12176 2.48365 2.42248 2.65603 1.86916 3.00081 1.46183 3.34698 1.05588 3.81549 0.852906 4.40634 0.852906 4.99718 0.852906 5.465 1.05588 5.80977 1.46183 6.15455 1.86916 6.32694 2.42248 6.32694 3.12176 6.32694 3.82522 6.15455 4.37853 5.80977 4.7817 5.465 5.18625 4.99718 5.38853 4.40634 5.38853ZM7.01927 9.51543 7.01927 8.31636C6.6884 8.47206 6.35474 8.59093 6.01831 8.67295 5.68187 8.75637 5.34822 8.79807 5.01734 8.79807 4.14845 8.79807 3.48461 8.50473 3.02584 7.91806 2.56845 7.33138 2.30709 6.44511 2.24175 5.25924 2.49755 5.63738 2.81869 5.92725 3.20518 6.12883 3.59305 6.33041 4.01916 6.43121 4.48349 6.43121 5.46082 6.43121 6.2331 6.13439 6.80031 5.54076 7.36753 4.94852 7.65113 4.14219 7.65113 3.12176 7.65113 2.12219 7.35571 1.32002 6.76486 0.715273 6.17401 0.111914 5.38784-0.189766 4.40634-0.189766 3.28025-0.189766 2.4197 0.241205 1.82468 1.10315 1.22966 1.96648 0.932149 3.21699 0.932149 4.85468 0.932149 6.39228 1.29708 7.61846 2.02696 8.53323 2.75683 9.44801 3.73624 9.90539 4.96521 9.90539 5.29608 9.90539 5.62974 9.87272 5.96617 9.80738 6.30261 9.74204 6.65364 9.64472 7.01927 9.51543Z" fill="#262626" transform="matrix(1.00216 0 0 -1 1259.22 400.192)"/><path d="M4.24159 8.86272C3.56455 8.86272 3.05503 8.52906 2.71303 7.86175 2.37243 7.19583 2.20212 6.19348 2.20212 4.85468 2.20212 3.52145 2.37243 2.52118 2.71303 1.85387 3.05503 1.18656 3.56455 0.852906 4.24159 0.852906 4.9242 0.852906 5.4358 1.18656 5.77641 1.85387 6.1184 2.52118 6.2894 3.52145 6.2894 4.85468 6.2894 6.19348 6.1184 7.19583 5.77641 7.86175 5.4358 8.52906 4.9242 8.86272 4.24159 8.86272ZM4.24159 9.90539C5.33292 9.90539 6.16637 9.47373 6.74192 8.61039 7.31748 7.74845 7.60526 6.49655 7.60526 4.85468 7.60526 3.21699 7.31748 1.96648 6.74192 1.10315 6.16637 0.241205 5.33292-0.189766 4.24159-0.189766 3.15165-0.189766 2.3189 0.241205 1.74335 1.10315 1.16779 1.96648 0.880016 3.21699 0.880016 4.85468 0.880016 6.49655 1.16779 7.74845 1.74335 8.61039 2.3189 9.47373 3.15165 9.90539 4.24159 9.90539Z" fill="#262626" transform="matrix(1.00216 0 0 -1 1285.03 400.192)"/><path d="M1.42638 1.65576 2.8027 1.65576 2.8027 0 1.42638 0 1.42638 1.65576Z" fill="#262626" transform="matrix(1.00216 0 0 -1 1293.53 400.192)"/><path d="M1.65576 1.10732 3.80576 1.10732 3.80576 8.53115 1.466 8.06195 1.466 9.26102 3.79324 9.73022 5.1091 9.73022 5.1091 1.10732 7.25909 1.10732 7.25909 0 1.65576 0 1.65576 1.10732Z" fill="#262626" transform="matrix(1.00216 0 0 -1 1297.79 400.192)"/><path d="M1.44097 9.73022 6.60846 9.73022 6.60846 8.62082 2.6463 8.62082 2.6463 6.23727C2.83677 6.30261 3.02723 6.35127 3.21769 6.38324 3.40954 6.41522 3.60139 6.43121 3.79324 6.43121 4.87901 6.43121 5.73887 6.1337 6.37282 5.53868 7.00815 4.94366 7.32582 4.13802 7.32582 3.12176 7.32582 2.07492 6.99981 1.26094 6.34779 0.679823 5.69577 0.100097 4.77683-0.189766 3.59097-0.189766 3.18224-0.189766 2.76586-0.155011 2.34184-0.0854992 1.91921-0.0159876 1.48199 0.0882796 1.03016 0.227303L1.03016 1.5515C1.42082 1.33879 1.82468 1.18031 2.24175 1.07604 2.65882 0.971771 3.09952 0.919637 3.56386 0.919637 4.31597 0.919637 4.91099 1.11705 5.34891 1.51188 5.78822 1.9067 6.00788 2.44333 6.00788 3.12176 6.00788 3.7988 5.78822 4.33474 5.34891 4.72956 4.91099 5.12578 4.31597 5.32389 3.56386 5.32389 3.21213 5.32389 2.86109 5.28496 2.51076 5.20711 2.16181 5.12926 1.80521 5.00761 1.44097 4.84217L1.44097 9.73022Z" fill="#262626" transform="matrix(1.00216 0 0 -1 1306.3 400.192)"/><path d="M0.652713 4.18946 4.16443 4.18946 4.16443 3.12176 0.652713 3.12176 0.652713 4.18946Z" fill="#262626" transform="matrix(1.00216 0 0 -1 1329.69 400.192)"/><path d="M4.24159 8.86272C3.56455 8.86272 3.05503 8.52906 2.71303 7.86175 2.37243 7.19583 2.20212 6.19348 2.20212 4.85468 2.20212 3.52145 2.37243 2.52118 2.71303 1.85387 3.05503 1.18656 3.56455 0.852906 4.24159 0.852906 4.9242 0.852906 5.4358 1.18656 5.77641 1.85387 6.1184 2.52118 6.2894 3.52145 6.2894 4.85468 6.2894 6.19348 6.1184 7.19583 5.77641 7.86175 5.4358 8.52906 4.9242 8.86272 4.24159 8.86272ZM4.24159 9.90539C5.33292 9.90539 6.16637 9.47373 6.74192 8.61039 7.31748 7.74845 7.60526 6.49655 7.60526 4.85468 7.60526 3.21699 7.31748 1.96648 6.74192 1.10315 6.16637 0.241205 5.33292-0.189766 4.24159-0.189766 3.15165-0.189766 2.3189 0.241205 1.74335 1.10315 1.16779 1.96648 0.880016 3.21699 0.880016 4.85468 0.880016 6.49655 1.16779 7.74845 1.74335 8.61039 2.3189 9.47373 3.15165 9.90539 4.24159 9.90539Z" fill="#262626" transform="matrix(1.00216 0 0 -1 1334.52 400.192)"/><path d="M1.42638 1.65576 2.8027 1.65576 2.8027 0 1.42638 0 1.42638 1.65576Z" fill="#262626" transform="matrix(1.00216 0 0 -1 1343.03 400.192)"/><path d="M1.65576 1.10732 3.80576 1.10732 3.80576 8.53115 1.466 8.06195 1.466 9.26102 3.79324 9.73022 5.1091 9.73022 5.1091 1.10732 7.25909 1.10732 7.25909 0 1.65576 0 1.65576 1.10732Z" fill="#262626" transform="matrix(1.00216 0 0 -1 1347.28 400.192)"/><path d="M1.65576 1.10732 3.80576 1.10732 3.80576 8.53115 1.466 8.06195 1.466 9.26102 3.79324 9.73022 5.1091 9.73022 5.1091 1.10732 7.25909 1.10732 7.25909 0 1.65576 0 1.65576 1.10732Z" fill="#262626" transform="matrix(1.00216 0 0 -1 1355.79 400.192)"/><path d="M4.24159 8.86272C3.56455 8.86272 3.05503 8.52906 2.71303 7.86175 2.37243 7.19583 2.20212 6.19348 2.20212 4.85468 2.20212 3.52145 2.37243 2.52118 2.71303 1.85387 3.05503 1.18656 3.56455 0.852906 4.24159 0.852906 4.9242 0.852906 5.4358 1.18656 5.77641 1.85387 6.1184 2.52118 6.2894 3.52145 6.2894 4.85468 6.2894 6.19348 6.1184 7.19583 5.77641 7.86175 5.4358 8.52906 4.9242 8.86272 4.24159 8.86272ZM4.24159 9.90539C5.33292 9.90539 6.16637 9.47373 6.74192 8.61039 7.31748 7.74845 7.60526 6.49655 7.60526 4.85468 7.60526 3.21699 7.31748 1.96648 6.74192 1.10315 6.16637 0.241205 5.33292-0.189766 4.24159-0.189766 3.15165-0.189766 2.3189 0.241205 1.74335 1.10315 1.16779 1.96648 0.880016 3.21699 0.880016 4.85468 0.880016 6.49655 1.16779 7.74845 1.74335 8.61039 2.3189 9.47373 3.15165 9.90539 4.24159 9.90539Z" fill="#262626" transform="matrix(1.00216 0 0 -1 1201.5 447.17)"/><path d="M4.24159 8.86272C3.56455 8.86272 3.05503 8.52906 2.71303 7.86175 2.37243 7.19583 2.20212 6.19348 2.20212 4.85468 2.20212 3.52145 2.37243 2.52118 2.71303 1.85387 3.05503 1.18656 3.56455 0.852906 4.24159 0.852906 4.9242 0.852906 5.4358 1.18656 5.77641 1.85387 6.1184 2.52118 6.2894 3.52145 6.2894 4.85468 6.2894 6.19348 6.1184 7.19583 5.77641 7.86175 5.4358 8.52906 4.9242 8.86272 4.24159 8.86272ZM4.24159 9.90539C5.33292 9.90539 6.16637 9.47373 6.74192 8.61039 7.31748 7.74845 7.60526 6.49655 7.60526 4.85468 7.60526 3.21699 7.31748 1.96648 6.74192 1.10315 6.16637 0.241205 5.33292-0.189766 4.24159-0.189766 3.15165-0.189766 2.3189 0.241205 1.74335 1.10315 1.16779 1.96648 0.880016 3.21699 0.880016 4.85468 0.880016 6.49655 1.16779 7.74845 1.74335 8.61039 2.3189 9.47373 3.15165 9.90539 4.24159 9.90539Z" fill="#262626" transform="matrix(1.00216 0 0 -1 1248.58 447.17)"/><path d="M4.24159 8.86272C3.56455 8.86272 3.05503 8.52906 2.71303 7.86175 2.37243 7.19583 2.20212 6.19348 2.20212 4.85468 2.20212 3.52145 2.37243 2.52118 2.71303 1.85387 3.05503 1.18656 3.56455 0.852906 4.24159 0.852906 4.9242 0.852906 5.4358 1.18656 5.77641 1.85387 6.1184 2.52118 6.2894 3.52145 6.2894 4.85468 6.2894 6.19348 6.1184 7.19583 5.77641 7.86175 5.4358 8.52906 4.9242 8.86272 4.24159 8.86272ZM4.24159 9.90539C5.33292 9.90539 6.16637 9.47373 6.74192 8.61039 7.31748 7.74845 7.60526 6.49655 7.60526 4.85468 7.60526 3.21699 7.31748 1.96648 6.74192 1.10315 6.16637 0.241205 5.33292-0.189766 4.24159-0.189766 3.15165-0.189766 2.3189 0.241205 1.74335 1.10315 1.16779 1.96648 0.880016 3.21699 0.880016 4.85468 0.880016 6.49655 1.16779 7.74845 1.74335 8.61039 2.3189 9.47373 3.15165 9.90539 4.24159 9.90539Z" fill="#262626" transform="matrix(1.00216 0 0 -1 1285.03 447.17)"/><path d="M1.42638 1.65576 2.8027 1.65576 2.8027 0 1.42638 0 1.42638 1.65576Z" fill="#262626" transform="matrix(1.00216 0 0 -1 1293.53 447.17)"/><path d="M1.65576 1.10732 3.80576 1.10732 3.80576 8.53115 1.466 8.06195 1.466 9.26102 3.79324 9.73022 5.1091 9.73022 5.1091 1.10732 7.25909 1.10732 7.25909 0 1.65576 0 1.65576 1.10732Z" fill="#262626" transform="matrix(1.00216 0 0 -1 1297.79 447.17)"/><path d="M1.65576 1.10732 3.80576 1.10732 3.80576 8.53115 1.466 8.06195 1.466 9.26102 3.79324 9.73022 5.1091 9.73022 5.1091 1.10732 7.25909 1.10732 7.25909 0 1.65576 0 1.65576 1.10732Z" fill="#262626" transform="matrix(1.00216 0 0 -1 1306.3 447.17)"/><path d="M4.24159 8.86272C3.56455 8.86272 3.05503 8.52906 2.71303 7.86175 2.37243 7.19583 2.20212 6.19348 2.20212 4.85468 2.20212 3.52145 2.37243 2.52118 2.71303 1.85387 3.05503 1.18656 3.56455 0.852906 4.24159 0.852906 4.9242 0.852906 5.4358 1.18656 5.77641 1.85387 6.1184 2.52118 6.2894 3.52145 6.2894 4.85468 6.2894 6.19348 6.1184 7.19583 5.77641 7.86175 5.4358 8.52906 4.9242 8.86272 4.24159 8.86272ZM4.24159 9.90539C5.33292 9.90539 6.16637 9.47373 6.74192 8.61039 7.31748 7.74845 7.60526 6.49655 7.60526 4.85468 7.60526 3.21699 7.31748 1.96648 6.74192 1.10315 6.16637 0.241205 5.33292-0.189766 4.24159-0.189766 3.15165-0.189766 2.3189 0.241205 1.74335 1.10315 1.16779 1.96648 0.880016 3.21699 0.880016 4.85468 0.880016 6.49655 1.16779 7.74845 1.74335 8.61039 2.3189 9.47373 3.15165 9.90539 4.24159 9.90539Z" fill="#262626" transform="matrix(1.00216 0 0 -1 1342.74 447.17)"/><path d="M4.50852 19.4604 16.8121 19.4604 16.3825 17.2416 6.69813 17.2416 5.58038 11.4819 14.8727 11.4819 14.4431 9.26728 5.14663 9.26728 3.79116 2.21464 13.6965 2.21464 13.267 0 0.717359 0 4.50852 19.4604Z" transform="matrix(1.00216 0 0 -1 1261.8 218.712)"/><path d="M1.10356 13.6223 12.6268 13.6223 12.3348 12.0691 7.47096 12.0691 5.13537 0 3.28442 0 5.62001 12.0691 0.802858 12.0691 1.10356 13.6223Z" transform="matrix(1.00216 0 0 -1 1278.7 223.091)"/></g></g></g><path d="M606.5 287.5C606.5 277.559 614.559 269.5 624.5 269.5 634.441 269.5 642.5 277.559 642.5 287.5 642.5 297.441 634.441 305.5 624.5 305.5 614.559 305.5 606.5 297.441 606.5 287.5Z" stroke="#000000" stroke-width="3" stroke-miterlimit="8" fill="#FFFFFF" fill-rule="evenodd"/><path d="M730.5 287.5C730.5 277.559 738.559 269.5 748.5 269.5 758.441 269.5 766.5 277.559 766.5 287.5 766.5 297.441 758.441 305.5 748.5 305.5 738.559 305.5 730.5 297.441 730.5 287.5Z" stroke="#000000" stroke-width="3" stroke-miterlimit="8" fill="#FFFFFF" fill-rule="evenodd"/><path d="M606.5 419.5C606.5 409.559 614.559 401.5 624.5 401.5 634.441 401.5 642.5 409.559 642.5 419.5 642.5 429.441 634.441 437.5 624.5 437.5 614.559 437.5 606.5 429.441 606.5 419.5Z" stroke="#000000" stroke-width="3" stroke-miterlimit="8" fill="#FFFFFF" fill-rule="evenodd"/><path d="M730.5 419.5C730.5 409.559 738.559 401.5 748.5 401.5 758.441 401.5 766.5 409.559 766.5 419.5 766.5 429.441 758.441 437.5 748.5 437.5 738.559 437.5 730.5 429.441 730.5 419.5Z" stroke="#000000" stroke-width="3" stroke-miterlimit="8" fill="#FFFFFF" fill-rule="evenodd"/><path d="M667.5 350.5C667.5 340.559 675.559 332.5 685.5 332.5 695.441 332.5 703.5 340.559 703.5 350.5 703.5 360.441 695.441 368.5 685.5 368.5 675.559 368.5 667.5 360.441 667.5 350.5Z" stroke="#000000" stroke-width="3" stroke-miterlimit="8" fill="#FFFFFF" fill-rule="evenodd"/><path d="M636.728 299.315 667.679 332.204 666.222 333.575 635.272 300.685ZM668.95 329.177 671.519 337.744 663.124 334.66Z"/><path d="M0.707107-0.707107 33.7373 32.3231 32.3231 33.7373-0.707107 0.707107ZM34.9158 29.259 37.7443 37.7443 29.259 34.9158Z" transform="matrix(-1 0 0 1 734.744 300)"/><path d="M0.773469-0.633834 32.0672 37.5539 30.5202 38.8216-0.773469 0.633834ZM33.5425 34.6212 35.5193 43.3442 27.3547 39.6918Z" transform="matrix(1 0 0 -1 636 406.344)"/><path d="M733.99 407.001 700.624 368.684 702.132 367.371 735.498 405.688ZM699.237 371.66 697 363 705.27 366.406Z"/><text font-family="Cambria Math,Cambria Math_MSFontService,sans-serif" font-weight="400" font-size="24" transform="translate(616.56 295)"></text><text font-family="Cambria Math,Cambria Math_MSFontService,sans-serif" font-weight="400" font-size="24" transform="translate(742.693 295)"></text><text font-family="Cambria Math,Cambria Math_MSFontService,sans-serif" font-weight="400" font-size="24" transform="translate(677.871 358)"></text><text font-family="Cambria Math,Cambria Math_MSFontService,sans-serif" font-weight="400" font-size="24" transform="translate(615.309 426)"></text><text font-family="Cambria Math,Cambria Math_MSFontService,sans-serif" font-weight="400" font-size="24" transform="translate(741.594 426)"></text><text font-family="Cambria Math,Cambria Math_MSFontService,sans-serif" font-weight="400" font-size="24" transform="translate(615.902 218)"></text><text font-family="Cambria Math,Cambria Math_MSFontService,sans-serif" font-weight="400" font-size="24" transform="translate(697.496 218)"></text><text font-family="Cambria Math,Cambria Math_MSFontService,sans-serif" font-weight="400" font-size="24" transform="translate(702.829 218)"></text><text font-family="Cambria Math,Cambria Math_MSFontService,sans-serif" font-weight="400" font-size="24" transform="translate(965.776 218)"></text><text font-family="Cambria Math,Cambria Math_MSFontService,sans-serif" font-weight="400" font-size="18" transform="translate(979.489 222)"></text><text font-family="Cambria Math,Cambria Math_MSFontService,sans-serif" font-weight="400" font-size="24" transform="translate(1264.12 218)"></text><text font-family="Cambria Math,Cambria Math_MSFontService,sans-serif" font-weight="400" font-size="18" transform="translate(1277.84 222)"></text></g></svg>